<?xml version="1.0" encoding="utf-8"?>
<!-- Generator: Adobe Illustrator 21.0.2, SVG Export Plug-In . SVG Version: 6.00 Build 0)  -->
<svg version="1.1" xmlns="http://www.w3.org/2000/svg" xmlns:xlink="http://www.w3.org/1999/xlink" x="0px" y="0px"
	 viewBox="0 0 191.3 53" style="enable-background:new 0 0 191.3 53;" xml:space="preserve">
<style type="text/css">
	.st0{display:none;}
	.st1{display:inline;fill:#020F0E;}
	.st2{fill-rule:evenodd;clip-rule:evenodd;fill:#FFFFFF;}
	.st3{fill:#FFFFFF;}
	.st4{display:inline;}
	.st5{fill:#0C4C8A;}
	.st6{fill:#35B5E2;}
	.st7{display:inline;fill:#AAFFA1;}
	.st8{display:none;fill:#FFFFFF;}
	.st9{display:none;fill:#FCFCFC;}
</style>
<g id="Layer_3_1_" class="st0">
	<rect x="-101" y="-37" class="st1" width="564" height="179"/>
</g>
<g id="Layer_2_1_">
	<g>
		<g>
			<g>
				<path class="st2" d="M65.3,21.3c-0.5,0.5-1,1-1.4,1.5c-0.9-0.8-1.7-1.7-2.6-2.5c0,0-0.1,0-0.1,0c-1.4,1.1-3,1.7-4.7,2
					c-1.9,0.3-3.8,0.2-5.7-0.4c-3.2-1-5.2-3.1-6.3-6.2c-0.4-1.2-0.6-2.4-0.6-3.6c0-1.8,0.2-3.6,1-5.2c1.4-3,3.7-4.9,7-5.5
					c2.2-0.5,4.4-0.4,6.6,0.4c2.9,1,4.8,3,5.9,5.9c0.6,1.7,0.8,3.5,0.6,5.3c-0.2,2.1-0.9,4-2.2,5.7c-0.1,0.1,0,0.2,0,0.3
					c0.8,0.7,1.5,1.5,2.3,2.2C65.2,21.1,65.3,21.2,65.3,21.3z M46,12c0,0.7,0.1,1.7,0.4,2.7c0.8,2.5,2.3,4.3,4.7,5.2
					c1.7,0.6,3.4,0.7,5.1,0.4c2.7-0.5,4.7-1.9,5.8-4.4c1.3-2.8,1.2-5.6,0-8.4c-0.9-2.1-2.5-3.4-4.6-4.1c-1.6-0.5-3.3-0.6-5-0.2
					c-2,0.4-3.7,1.5-4.9,3.2C46.5,8,46,9.8,46,12z"/>
				<path class="st2" d="M127.7,11.2c0-1.4,0.4-3.3,1.4-5.1c1.3-2.3,3.1-3.8,5.6-4.6c2.5-0.8,5-0.7,7.5,0.2c2.9,1,4.8,3.1,5.8,6
					c0.5,1.4,0.7,2.9,0.7,4.4c-0.1,2.4-0.7,4.6-2.1,6.5c-1.5,2-3.5,3.3-5.9,3.8c-2.1,0.4-4.3,0.4-6.3-0.4c-3.1-1.1-5.1-3.3-6.1-6.4
					C127.8,14.3,127.7,13.2,127.7,11.2z M138.2,20.6c0.4,0,0.8,0,1.2-0.1c0.2,0,0.3,0,0.5-0.1c2.9-0.5,4.9-2.1,6-4.7
					c1.1-2.6,1.1-5.2,0.1-7.7c-0.9-2.3-2.5-3.9-4.8-4.6c-1.7-0.5-3.4-0.6-5.1-0.2c-2.5,0.5-4.3,1.9-5.4,4.2
					c-1.1,2.4-1.2,4.9-0.4,7.5c0.6,1.8,1.6,3.4,3.2,4.4C134.9,20.3,136.5,20.6,138.2,20.6z"/>
				<path class="st2" d="M115.3,4.7c-0.6,0.3-1.1,0.6-1.7,1c-0.2-0.2-0.3-0.4-0.5-0.6c-0.8-0.9-1.8-1.4-3-1.7
					c-1.9-0.5-3.9-0.5-5.8,0.1c-0.9,0.3-1.7,0.8-2.2,1.6c-0.7,1-0.7,2.5,0,3.4c0.4,0.5,0.9,0.8,1.5,1.1c0.9,0.4,1.9,0.6,2.9,0.8
					c1.4,0.3,2.8,0.6,4.2,0.9c0.9,0.2,1.7,0.5,2.5,1c1.6,0.9,2.4,2.3,2.5,4.1c0,1.5-0.3,2.8-1.4,4c-0.7,0.7-1.6,1.2-2.5,1.6
					c-1.6,0.6-3.2,0.7-4.9,0.7c-1.7-0.1-3.2-0.4-4.7-1.2c-1.5-0.7-2.6-1.8-3.3-3.3c0,0,0-0.1-0.1-0.1c0.6-0.3,1.2-0.6,1.8-1
					c0.1,0.1,0.1,0.2,0.2,0.3c1,1.6,2.4,2.5,4.1,3c1.3,0.4,2.7,0.4,4.1,0.3c1-0.1,2-0.3,2.9-0.8c1.7-0.9,2.2-2.6,1.8-4.1
					c-0.2-0.8-0.7-1.3-1.4-1.7c-0.8-0.5-1.7-0.8-2.6-1c-1.2-0.3-2.4-0.5-3.6-0.7c-1.2-0.2-2.5-0.5-3.6-1.1c-1-0.4-1.8-1.1-2.3-2
					c-0.3-0.5-0.5-1.1-0.5-1.7c-0.1-1.1,0-2.1,0.6-3.1c0.6-1.1,1.6-1.9,2.8-2.4c1.2-0.5,2.5-0.8,3.8-0.8c1.4-0.1,2.7,0,4.1,0.4
					c1.8,0.5,3.2,1.5,4.3,3C115.2,4.5,115.3,4.6,115.3,4.7z"/>
				<path class="st2" d="M0.8,22.2c0.2-0.5,0.4-0.9,0.6-1.4C3.6,15.9,5.8,10.9,8,6c0.7-1.5,1.3-3,2-4.4c0.1-0.1,0.1-0.2,0.3-0.2
					c0.6,0,1.1,0,1.7,0c0.1,0,0.2,0,0.3,0.2c1.9,4.3,3.8,8.5,5.7,12.8c1.1,2.5,2.3,5.1,3.4,7.6c0,0.1,0.1,0.1,0.1,0.2
					c-0.1,0-0.2,0-0.2,0c-0.6,0-1.2,0-1.7,0c-0.2,0-0.2,0-0.3-0.2c-0.6-1.5-1.3-2.9-2-4.4c-0.1-0.1-0.1-0.2-0.3-0.2
					c-3.9,0-7.8,0-11.7,0c-0.2,0-0.2,0.1-0.3,0.2c-0.6,1.5-1.3,2.9-2,4.4c-0.1,0.1-0.1,0.2-0.3,0.2c-0.6,0-1.2,0-1.7,0
					C1,22.2,0.9,22.2,0.8,22.2z M11.2,3.6c-1.8,4-3.5,7.9-5.2,11.9c3.5,0,6.9,0,10.4,0C14.6,11.5,12.9,7.6,11.2,3.6z"/>
				<path class="st2" d="M69.8,1.4c0.7,0,1.4,0,2.1,0c0,0.1,0,0.2,0,0.3c0,4.1,0,8.2,0,12.4c0,1.4,0.3,2.7,1.1,3.9
					c1,1.4,2.4,2.2,4.1,2.5c1.3,0.2,2.6,0.1,3.8-0.5c1.8-0.8,2.9-2.3,3.3-4.2c0.1-0.5,0.2-1.1,0.2-1.7c0-4.1,0-8.2,0-12.3
					c0-0.1,0-0.2,0-0.3c0.7,0,1.4,0,2.1,0c0,0.1,0,0.1,0,0.2c0,4.3,0,8.5,0,12.8c0,1.4-0.3,2.8-1,4.1c-0.9,1.7-2.3,2.8-4.2,3.4
					c-2.3,0.7-4.6,0.7-6.9-0.3c-2.3-1-3.7-2.8-4.2-5.2c-0.2-0.8-0.2-1.6-0.2-2.4c0-4.1,0-8.2,0-12.3C69.8,1.6,69.8,1.5,69.8,1.4z"/>
				<path class="st2" d="M40.1,18.1c0.4,0.4,0.9,0.9,1.3,1.3c-0.1,0.1-0.1,0.1-0.2,0.2c-1.6,1.6-3.6,2.5-5.8,2.8
					c-2.4,0.3-4.8,0-7-1.1c-2.4-1.2-4-3.2-4.8-5.7c-0.5-1.6-0.6-3.3-0.5-4.9c0.2-2,0.8-3.8,1.9-5.4c1.4-2.1,3.4-3.3,5.8-3.9
					C32.2,1.1,33.6,1,35,1.1c2.2,0.2,4.2,1,5.9,2.6C41,3.9,41.1,4,41.2,4.2C40.8,4.6,40.4,5,40,5.4c0,0-0.1-0.1-0.2-0.2
					c-1.4-1.3-3.1-2.1-5.1-2.2c-2-0.2-3.9,0.2-5.7,1.3c-1.8,1.1-2.9,2.8-3.5,4.8c-0.6,2.4-0.5,4.8,0.6,7.1c1,2.1,2.7,3.4,5,4
					c2.2,0.6,4.3,0.5,6.4-0.4C38.5,19.4,39.3,18.8,40.1,18.1C40.1,18.1,40.1,18.1,40.1,18.1z"/>
				<path class="st2" d="M94.4,22.2c-0.7,0-1.4,0-2,0c0-6.9,0-13.8,0-20.8c0.7,0,1.4,0,2,0C94.4,8.3,94.4,15.2,94.4,22.2z"/>
				<path class="st2" d="M120.7,1.4c0.7,0,1.3,0,2,0c0,6.9,0,13.8,0,20.8c-0.7,0-1.3,0-2,0C120.7,15.2,120.7,8.3,120.7,1.4z"/>
			</g>
			<g>
				<rect x="160.3" y="1.1" class="st3" width="22.1" height="4.4"/>
				<rect x="160.3" y="18.3" class="st3" width="22.1" height="4.4"/>
				<rect x="167.8" y="9.7" class="st3" width="22.1" height="4.4"/>
			</g>
		</g>
	</g>
	<g>
		<path class="st3" d="M164.2,47.5c0,0.9-0.7,1.6-1.6,1.6c-0.9,0-1.6-0.7-1.6-1.6c0-0.9,0.7-1.6,1.6-1.6
			C163.5,45.9,164.2,46.6,164.2,47.5L164.2,47.5z"/>
		<path class="st3" d="M140,39.1c-0.1-0.2-0.3-0.4-0.6-0.5c-0.1,0-0.2-0.1-0.3-0.1c-0.4,0-0.8,0.3-0.9,0.6l-2.2,6.1l-2.2-6.1
			c0,0,0,0,0-0.1l0,0c0-0.1-0.1-0.1-0.1-0.2c0,0-0.1-0.1-0.1-0.1l0,0c0,0-0.1-0.1-0.1-0.1l0,0c0,0-0.1-0.1-0.1-0.1l0,0c0,0,0,0,0,0
			c0,0-0.1,0-0.1,0c0,0,0,0-0.1,0c-0.1,0-0.1,0-0.2,0c0,0,0,0-0.1,0c0,0-0.1,0-0.1,0c0,0,0,0,0,0c0,0,0,0,0,0c-0.1,0-0.1,0-0.2,0.1
			l0,0c0,0-0.1,0.1-0.1,0.1l0,0c0,0-0.1,0.1-0.1,0.1l0,0c0,0-0.1,0.1-0.1,0.1l0,0v0l0,0c0,0,0,0,0,0.1l-2.2,6.1l-2.2-6.1
			c-0.1-0.4-0.5-0.6-0.9-0.6c-0.1,0-0.2,0-0.3,0.1c-0.2,0.1-0.4,0.3-0.6,0.5c-0.1,0.2-0.1,0.5,0,0.7l3.1,8.6c0,0,0,0,0,0
			c0,0,0,0.1,0.1,0.1l0,0c0,0,0,0,0,0c0,0,0,0.1,0.1,0.1l0,0c0,0,0,0,0,0c0,0,0.1,0.1,0.1,0.1l0,0c0,0,0,0,0,0c0,0,0.1,0,0.1,0.1
			c0,0,0.1,0,0.1,0c0,0,0,0,0,0c0,0,0,0,0,0c0,0,0,0,0,0c0,0,0.1,0,0.1,0c0,0,0.1,0,0.1,0c0.1,0,0.1,0,0.2,0c0,0,0.1,0,0.1,0
			c0,0,0.1,0,0.1,0l0,0c0,0,0,0,0,0c0,0,0,0,0,0c0,0,0.1,0,0.1,0c0,0,0.1,0,0.1-0.1c0,0,0,0,0,0l0,0c0,0,0.1-0.1,0.1-0.1
			c0,0,0,0,0,0c0,0,0.1-0.1,0.1-0.1c0,0,0,0,0,0l0,0c0,0,0-0.1,0.1-0.1c0,0,0,0,0,0l2.2-6.1l2.2,6.1c0,0,0,0,0,0c0,0,0,0.1,0.1,0.1
			l0,0c0,0,0,0,0,0c0,0,0,0.1,0.1,0.1l0,0c0,0,0,0,0,0c0,0,0.1,0.1,0.1,0.1l0,0c0,0,0,0,0,0c0,0,0.1,0,0.1,0.1c0,0,0.1,0,0.1,0
			c0,0,0,0,0,0c0,0,0,0,0,0l0,0c0,0,0.1,0,0.1,0c0,0,0.1,0,0.1,0c0,0,0.1,0,0.1,0c0,0,0.1,0,0.1,0c0,0,0.1,0,0.1,0c0,0,0.1,0,0.1,0
			l0,0c0,0,0,0,0,0c0,0,0,0,0,0c0,0,0.1,0,0.1,0c0,0,0.1,0,0.1-0.1c0,0,0,0,0,0l0,0c0,0,0.1-0.1,0.1-0.1c0,0,0,0,0,0
			c0,0,0.1-0.1,0.1-0.1c0,0,0,0,0,0l0,0c0,0,0-0.1,0.1-0.1c0,0,0,0,0,0l3.1-8.6C140.1,39.6,140.1,39.3,140,39.1L140,39.1z"/>
		<path class="st3" d="M147.8,42.9h-6c0.2-0.7,0.5-1.3,0.9-1.7c0.5-0.5,1.3-0.8,2.1-0.8c0.9,0,1.6,0.3,2.1,0.8
			C147.4,41.6,147.7,42.2,147.8,42.9L147.8,42.9z M148.6,40.1c-0.9-1-2.2-1.6-3.7-1.6c-1.4,0-2.7,0.5-3.7,1.5c-1,1-1.5,2.3-1.5,3.7
			c0,1.5,0.5,2.8,1.5,3.7c1,1,2.4,1.5,4,1.5c3,0,4.3-1.9,4.3-1.9c0.2-0.3,0.1-0.8-0.2-1.1c-0.2-0.2-0.4-0.3-0.7-0.3
			c-0.2,0-0.4,0.1-0.6,0.2c0,0-1.3,1.1-2.9,1.2c0,0-0.1,0-0.1,0c-0.9,0-1.6-0.3-2.2-0.8c-0.5-0.4-0.8-1.1-1-1.8l6.6,0
			c0,0,0.1,0,0.1,0c0.1,0,0.1,0,0.2,0c0.5,0,0.8-0.1,1-0.2c0.3-0.2,0.3-0.5,0.3-0.9C149.9,42.3,149.4,41.1,148.6,40.1L148.6,40.1z"
			/>
		<path class="st3" d="M155.7,47.1c-1.8,0-3.3-1.5-3.3-3.3s1.5-3.3,3.3-3.3c1.8,0,3.1,1.5,3.1,3.3C158.8,45.6,157.4,47.1,155.7,47.1
			L155.7,47.1z M155.8,38.5c-1.4,0-2.4,0.4-3.2,1.3v-6.3l0-0.1h0c-0.1-0.5-0.5-0.9-1-0.9c-0.6,0-1,0.5-1,1V48c0,0.6,0.5,1,1,1
			c0.5,0,1-0.4,1-0.9h0v0c0.8,0.6,1.8,0.9,2.9,0.9c3.1,0,5.4-2.2,5.4-5.3C160.9,40.8,158.6,38.5,155.8,38.5L155.8,38.5z"/>
		<path class="st3" d="M176.8,45.9c0-1.3-0.9-2.3-2.2-2.3c-1.3,0-2.2,1-2.2,2.3c0,1.3,0.9,2.3,2.2,2.3
			C175.9,48.2,176.8,47.2,176.8,45.9L176.8,45.9z M171.3,45.9c0-1.8,1.4-3.2,3.3-3.2c1.8,0,3.2,1.4,3.2,3.2c0,1.8-1.4,3.2-3.2,3.2
			C172.7,49.1,171.3,47.7,171.3,45.9L171.3,45.9z"/>
		<path class="st3" d="M170.3,47.4c-0.1,0-0.1,0-0.2,0c0,0-0.1,0.1-0.2,0.1c-0.4,0.4-0.9,0.6-1.6,0.6c-1.3,0-2.1-1-2.1-2.3
			c0-1.3,0.8-2.3,2.1-2.3c0.7,0,1.2,0.3,1.6,0.6c0,0,0.2,0.1,0.2,0.1c0.1,0,0.1,0,0.2,0c0.3,0,0.5-0.2,0.5-0.5c0,0,0-0.1,0-0.1
			c0,0,0-0.1-0.1-0.2c0,0,0,0,0-0.1c-0.5-0.6-1.3-0.9-2.2-0.9c-1.8,0-3.2,1.4-3.2,3.2c0,1.8,1.4,3.2,3.2,3.2c1,0,1.7-0.3,2.2-0.9
			c0,0,0,0,0-0.1c0-0.1,0.1-0.2,0.1-0.2c0,0,0-0.1,0-0.1C170.8,47.6,170.6,47.4,170.3,47.4L170.3,47.4z"/>
		<path class="st3" d="M187.7,45.4V45c0-1.5-0.8-2.4-2.2-2.4c-0.9,0-1.7,0.5-2.1,1.3c-0.3-0.8-0.9-1.3-1.9-1.3
			c-0.9,0-1.5,0.5-1.9,1.3l0-0.8c0,0,0,0,0,0c0,0,0,0,0,0c0-0.2-0.1-0.3-0.2-0.4c-0.1-0.1-0.2-0.1-0.3-0.1c-0.1,0-0.2,0.1-0.3,0.1
			c-0.1,0.1-0.2,0.2-0.2,0.4v2.2v2.3v0.8c0,0.3,0.2,0.5,0.5,0.5c0.3,0,0.5-0.2,0.5-0.5v-0.8v-2.2c0-1.2,0.7-1.9,1.7-1.9
			c1,0,1.3,0.6,1.3,1.5v2.6h0v0.8c0,0.3,0.2,0.5,0.5,0.5c0.3,0,0.5-0.2,0.5-0.5v-0.8h0v-2.2c0-1.2,0.7-1.9,1.7-1.9
			c1,0,1.4,0.6,1.4,1.5v0.3v2.3v0.8c0,0.3,0.2,0.5,0.5,0.5c0.3,0,0.5-0.2,0.5-0.5L187.7,45.4C187.7,45.4,187.7,45.4,187.7,45.4
			L187.7,45.4z"/>
		<path class="st3" d="M189.2,42.7c0-0.1-0.1-0.2-0.2-0.2c0,0-0.1,0-0.1,0c0,0,0,0,0,0l0,0.4h0.1c0.1,0,0.1,0,0.2-0.1
			C189.2,42.8,189.2,42.8,189.2,42.7L189.2,42.7z M189.5,43.6c-0.1,0-0.1,0-0.2,0c0,0-0.1,0-0.1,0c0,0-0.1,0-0.1-0.1l-0.2-0.4h-0.1
			v0.5h-0.3v-1.3c0.1,0,0.1,0,0.2,0c0.1,0,0.1,0,0.2,0c0.2,0,0.3,0,0.4,0.1c0.1,0.1,0.1,0.2,0.1,0.3c0,0.1,0,0.1,0,0.1
			c0,0,0,0.1-0.1,0.1c0,0-0.1,0.1-0.1,0.1c0,0-0.1,0-0.1,0.1L189.5,43.6L189.5,43.6z M189.8,43c0-0.1,0-0.2-0.1-0.3
			c0-0.1-0.1-0.2-0.2-0.3c-0.1-0.1-0.2-0.2-0.3-0.2c-0.1,0-0.2-0.1-0.4-0.1c-0.1,0-0.3,0-0.4,0.1c-0.1,0-0.2,0.1-0.3,0.2
			c-0.1,0.1-0.1,0.2-0.2,0.3c0,0.1-0.1,0.2-0.1,0.3c0,0.1,0,0.2,0.1,0.3c0,0.1,0.1,0.2,0.2,0.3c0.1,0.1,0.2,0.2,0.3,0.2
			c0.1,0,0.2,0.1,0.4,0.1c0.1,0,0.3,0,0.4-0.1c0.1-0.1,0.2-0.1,0.3-0.2c0.1-0.1,0.1-0.2,0.2-0.3C189.8,43.2,189.8,43.1,189.8,43
			L189.8,43z M190,43c0,0.1,0,0.3-0.1,0.4c0,0.1-0.1,0.2-0.2,0.3c-0.1,0.1-0.2,0.2-0.3,0.2c-0.1,0.1-0.3,0.1-0.4,0.1
			c-0.2,0-0.3,0-0.4-0.1c-0.1-0.1-0.2-0.1-0.3-0.2c-0.1-0.1-0.2-0.2-0.2-0.3c0-0.1-0.1-0.3-0.1-0.4c0-0.1,0-0.3,0.1-0.4
			c0-0.1,0.1-0.2,0.2-0.3c0.1-0.1,0.2-0.2,0.3-0.2c0.1-0.1,0.3-0.1,0.4-0.1c0.2,0,0.3,0,0.4,0.1c0.1,0.1,0.2,0.1,0.3,0.2
			c0.1,0.1,0.2,0.2,0.2,0.3C190,42.7,190,42.9,190,43L190,43z"/>
	</g>
	<g>
		<path class="st3" d="M99.8,35.3c0-0.4,0.3-0.7,0.7-0.7c0.4,0,0.7,0.3,0.7,0.7v5.4c0.8-1.2,2-2.2,3.8-2.2c2.4,0,4.7,1.9,4.7,5.2
			v0.1c0,3.2-2.3,5.2-4.7,5.2c-1.8,0-3-1-3.8-2.1v1.2c0,0.4-0.3,0.7-0.7,0.7s-0.7-0.3-0.7-0.7V35.3z M108.3,43.7L108.3,43.7
			c0-2.4-1.6-3.9-3.5-3.9c-1.8,0-3.6,1.5-3.6,3.8v0.1c0,2.3,1.8,3.9,3.6,3.9C106.7,47.5,108.3,46.1,108.3,43.7z"/>
		<path class="st3" d="M111.5,51.5c-0.2-0.1-0.5-0.3-0.5-0.6s0.3-0.6,0.6-0.6c0.1,0,0.2,0.1,0.3,0.1c0.3,0.1,0.6,0.2,1.1,0.2
			c0.9,0,1.5-0.6,2-1.8l0.1-0.2l-4.1-8.8c-0.1-0.1-0.1-0.3-0.1-0.4c0-0.4,0.3-0.7,0.7-0.7c0.4,0,0.6,0.2,0.7,0.6l3.5,7.8l3.1-7.8
			c0.1-0.3,0.3-0.6,0.7-0.6c0.4,0,0.7,0.3,0.7,0.7c0,0.1-0.1,0.2-0.1,0.3l-3.9,9.2c-0.9,2-1.8,2.8-3.3,2.8
			C112.5,51.7,112,51.6,111.5,51.5z"/>
	</g>
</g>
<g id="Layer_1" class="st0">
	<g id="Layer_2">
	</g>
	<g id="color">
		<g class="st4">
			<path class="st5" d="M45.2,20.2c-2.3,2.3-5.3,3.5-8.3,3.5C29,23.6,25,18.3,25,12c0-6.2,4-11.9,11.9-11.9c3,0,6.1,1.1,8.1,3.4
				l-1.4,1.4c-1.9-1.8-4.2-2.7-6.7-2.7c-6.4,0-9.6,4.7-9.6,9.8c0,5.4,3.2,9.6,9.6,9.6c2.5,0,5-1,6.9-2.8L45.2,20.2z"/>
			<path class="st5" d="M71.1,11.8c0,2.7-0.8,5.6-2.6,7.7l2.8,2.8l-1.6,1.6L67,21.1c-1.8,1.5-4.4,2.5-7.4,2.5
				c-7.9,0-11.7-5.6-11.6-11.9c0-6,3.9-11.6,11.6-11.6C67.3,0,71.1,5.6,71.1,11.8 M50.2,11.7c0,5,3.1,9.7,9.3,9.7
				c6.2,0,9.3-4.7,9.3-9.6c0-5.2-3-9.5-9.3-9.5C53.8,2.2,50.2,6.5,50.2,11.7"/>
			<path class="st5" d="M94.5,0.4v14c0,6.2-4.1,9.1-9,9.1c-5,0-9.2-3-9.2-9.1v-14h2.3v14c0,4.3,3,7,6.9,7c3.5,0,6.7-2.3,6.7-7v-14
				H94.5z"/>
			<rect x="101.1" y="0.4" class="st5" width="2.3" height="22.9"/>
			<path class="st5" d="M124.4,5.1c-1.3-2.2-4.1-2.9-6.6-2.9c-2.8,0-6.4,0.8-6.4,4.2c0,2.7,2.9,3.4,6.5,4c4.5,0.8,9.1,1.8,9.1,6.7
				c0,5.2-5,6.6-9.1,6.6c-3.9,0-7.8-1.4-9.5-5.1l2-1.1c1.6,2.9,4.8,4,7.5,4c2.8,0,6.8-0.8,6.8-4.4c0-3.1-3.4-3.9-7-4.5
				c-4.3-0.8-8.6-1.7-8.6-6.1C109,1.6,113.9,0,117.8,0c3.1,0,6.5,0.9,8.5,4L124.4,5.1z"/>
			<rect x="132.2" y="0.4" class="st5" width="2.3" height="22.9"/>
			<path class="st5" d="M163,11.9c0,6-3.8,11.8-11.6,11.8c-7.8,0-11.6-5.8-11.6-11.8C139.9,5.4,144,0,151.5,0
				C159.2,0,163.1,5.8,163,11.9 M151.5,21.5c6.2,0,9.2-4.7,9.3-9.6c0-5.1-3-9.7-9.3-9.7c-6.1,0-9.4,4.3-9.3,9.7
				C142.2,16.9,145.2,21.5,151.5,21.5"/>
			<rect x="176" y="18.9" class="st6" width="24.2" height="4.7"/>
			<rect x="184.1" y="9.5" class="st6" width="24.2" height="4.7"/>
			<rect x="176" class="st6" width="24.2" height="4.7"/>
			<path class="st5" d="M18.7,18H5.4l-2.4,5.3H0.6L10.9,0.4h2.3l10.3,22.9H21L18.7,18z M6.3,15.9h11.4L12,2.9L6.3,15.9z"/>
		</g>
	</g>
	<g id="Layer_5">
		<rect x="-10.3" y="-19.8" class="st7" width="230.8" height="77.8"/>
	</g>
	<g id="Layer_4">
	</g>
	<g id="Layer_3" class="st4">
		<g>
			<rect class="st8" width="208.5" height="24"/>
			<path class="st3" d="M45.2,20.2c-2.3,2.3-5.3,3.5-8.3,3.5C29,23.6,25,18.3,25,12c0-6.2,4-11.9,11.9-11.9c3,0,6.1,1.1,8.1,3.4
				l-1.4,1.4c-1.9-1.8-4.2-2.7-6.7-2.7c-6.4,0-9.6,4.7-9.6,9.8c0,5.4,3.2,9.6,9.6,9.6c2.5,0,5-1,6.9-2.8L45.2,20.2z"/>
			<path class="st3" d="M71.1,11.8c0,2.7-0.8,5.6-2.6,7.7l2.8,2.8l-1.6,1.6L67,21.1c-1.8,1.5-4.4,2.5-7.4,2.5
				c-7.9,0-11.7-5.6-11.6-11.9c0-6,3.9-11.6,11.6-11.6C67.3,0,71.1,5.6,71.1,11.8 M50.2,11.7c0,5,3.1,9.7,9.3,9.7
				c6.2,0,9.3-4.7,9.3-9.6c0-5.2-3-9.5-9.3-9.5C53.8,2.2,50.2,6.5,50.2,11.7"/>
			<path class="st3" d="M94.5,0.4v14c0,6.2-4.1,9.1-9,9.1c-5,0-9.2-3-9.2-9.1v-14h2.3v14c0,4.3,3,7,6.9,7c3.5,0,6.7-2.3,6.7-7v-14
				H94.5z"/>
			<rect x="101.1" y="0.4" class="st3" width="2.3" height="22.9"/>
			<path class="st3" d="M124.4,5.1c-1.3-2.2-4.1-2.9-6.6-2.9c-2.8,0-6.4,0.8-6.4,4.2c0,2.7,2.9,3.4,6.5,4c4.5,0.8,9.1,1.8,9.1,6.7
				c0,5.2-5,6.6-9.1,6.6c-3.9,0-7.8-1.4-9.5-5.1l2-1.1c1.6,2.9,4.8,4,7.5,4c2.8,0,6.8-0.8,6.8-4.4c0-3.1-3.4-3.9-7-4.5
				c-4.3-0.8-8.6-1.7-8.6-6.1C109,1.6,113.9,0,117.8,0c3.1,0,6.5,0.9,8.5,4L124.4,5.1z"/>
			<rect x="132.2" y="0.4" class="st3" width="2.3" height="22.9"/>
			<path class="st3" d="M163,11.9c0,6-3.8,11.8-11.6,11.8c-7.8,0-11.6-5.8-11.6-11.8C139.9,5.4,144,0,151.5,0
				C159.2,0,163.1,5.8,163,11.9 M151.5,21.5c6.2,0,9.2-4.7,9.3-9.6c0-5.1-3-9.7-9.3-9.7c-6.1,0-9.4,4.3-9.3,9.7
				C142.2,16.9,145.2,21.5,151.5,21.5"/>
			<rect x="176" y="18.9" class="st3" width="24.2" height="4.7"/>
			<rect x="184.1" y="9.5" class="st3" width="24.2" height="4.7"/>
			<rect x="176" class="st3" width="24.2" height="4.7"/>
			<path class="st3" d="M18.7,18H5.4l-2.4,5.3H0.6L10.9,0.4h2.3l10.3,22.9H21L18.7,18z M6.3,15.9h11.4L12,2.9L6.3,15.9z"/>
		</g>
		<polygon class="st9" points="155.7,-32.3 156,-32.3 156,-32.3 		"/>
	</g>
</g>
</svg>
