<svg width="199" height="145" viewBox="0 0 199 145" xmlns="http://www.w3.org/2000/svg" xmlns:xlink="http://www.w3.org/1999/xlink">
  <defs>
    <path id="a" d="M23.784 32.955V.14H.68v32.815z"/>
  </defs>
  <g fill="none" fill-rule="evenodd">
    <path d="M21.725 132.224H9.033l6.346-14.557 6.345 14.557zm-4.468-19.707c-.03-.074-.103-.123-.182-.123h-3.35c-.078 0-.15.05-.18.123L.016 144.027c-.027.064-.02.137.016.196.036.058.1.093.166.093h3.697c.078 0 .15-.048.18-.123l3.56-8.336h15.398l3.644 8.337c.03.075.103.122.18.122h3.74c.07 0 .132-.035.17-.093.036-.06.04-.132.014-.195l-13.527-31.51zM53.63 121.364c0 3.36-2.185 5.21-6.152 5.21H37.76v-10.42h9.718c3.91 0 6.15 1.898 6.15 5.21zm-2.986 8.464c4.36-.964 6.95-4.16 6.95-8.6 0-5.344-3.885-8.798-9.897-8.798h-13.66c-.11 0-.197.092-.197.205v31.332c0 .114.088.206.198.206h3.524c.11 0 .2-.092.2-.206v-13.715h8.568l9.423 13.833c.038.054.1.088.164.088h4.175c.074 0 .142-.043.176-.11.036-.07.03-.152-.013-.215l-9.61-14.02zM86.286 137.874c-.068-.034-.15-.025-.21.024-2.473 2.018-5.363 3-8.837 3-3.32 0-6.37-1.258-8.586-3.538-2.244-2.31-3.48-5.526-3.48-9.058 0-7.18 5.132-12.597 11.935-12.597 3.154 0 5.722.79 8.327 2.56.062.044.14.047.204.012.066-.035.106-.106.106-.18v-3.716c0-.07-.035-.135-.093-.173-2.42-1.558-5.23-2.314-8.587-2.314-4.392 0-8.418 1.64-11.335 4.62-2.944 3.006-4.565 7.193-4.565 11.79 0 4.622 1.628 8.82 4.582 11.82 2.914 2.958 6.933 4.587 11.32 4.587 3.586 0 6.784-.958 9.248-2.77.053-.038.084-.1.084-.166v-3.715c0-.08-.044-.15-.114-.186M96.207 129.25h10.24c4.33 0 6.715 1.98 6.715 5.57 0 3.677-2.384 5.703-6.716 5.703h-10.24V129.25zm8.978-3.633h-8.978v-9.39h8.978c4.688 0 5.672 2.59 5.672 4.762 0 2.983-2.014 4.627-5.672 4.627zm6.01 1.253c2.286-1.163 3.584-3.514 3.584-6.553 0-4.82-3.444-7.814-8.986-7.814h-13.31c-.11 0-.2.092-.2.205v31.33c0 .115.09.208.2.208H107.1c6.224 0 10.245-3.507 10.245-8.934 0-4.337-2.338-7.516-6.15-8.442zM144.27 140.45h-17.938v-11.407h14.11c.11 0 .2-.092.2-.204v-3.315c0-.112-.09-.204-.2-.204h-14.11v-9.167h17.286c.11 0 .2-.093.2-.205v-3.312c0-.114-.09-.206-.2-.206H122.61c-.11 0-.2.092-.2.206v31.33c0 .115.09.207.2.207h21.66c.11 0 .2-.092.2-.207v-3.312c0-.112-.09-.204-.2-.204M171.83 140.45h-17.938v-11.407h14.11c.11 0 .2-.092.2-.204v-3.315c0-.112-.09-.204-.2-.204h-14.11v-9.167h17.286c.11 0 .2-.093.2-.205v-3.312c0-.114-.09-.206-.2-.206H150.17c-.11 0-.2.092-.2.206v31.33c0 .115.09.207.2.207h21.66c.11 0 .2-.092.2-.207v-3.312c0-.112-.09-.204-.2-.204" fill="#1F1C1C"/>
    <g transform="translate(174.676 111.754)">
      <mask id="b" fill="#fff">
        <use xlink:href="#a"/>
      </mask>
      <path d="M13.55 14.112c-.513-.158-1.023-.308-1.524-.454-3.633-1.068-6.77-1.99-6.77-5.033 0-2.927 2.59-4.673 6.933-4.673 4.265 0 7.677 1.802 9.33 2.876.063.04.14.043.204.008.063-.037.103-.105.103-.18V2.94c0-.07-.036-.136-.094-.173C19.06 1.047 15.73.14 12.103.14 8.794.14 6.022.966 4.09 2.53 2.23 4.04 1.247 6.115 1.247 8.535c0 6.085 5.225 7.597 10.28 9.06 4.788 1.396 8.248 2.404 8.248 6.114 0 3.25-3.136 5.433-7.804 5.433-4.425 0-8.862-1.956-10.957-3.886-.06-.054-.142-.068-.214-.034-.073.032-.12.105-.12.187v4.027c0 .066.032.13.084.167 2.834 2.098 7.105 3.35 11.425 3.35 3.158 0 6.04-.84 8.112-2.364 2.278-1.676 3.482-4.073 3.482-6.927 0-5.893-4.84-7.88-10.233-9.55" fill="#1F1C1C" mask="url(#b)"/>
    </g>
    <path d="M108.31 27.842H96.43l5.94-10.692 5.94 10.692zM85.537 53.048L92.07 41.32h20.54l6.532 11.728H85.537zm6.532 25.187l-6.533-11.728h33.605l-6.532 11.728H92.07zm66.44 12.496L107.954.434 107.88.3c-.103-.184-.296-.3-.504-.3H97.348c-.208 0-.4.114-.504.3L46.17 90.73c-.103.187-.103.415 0 .6.106.186.298.3.505.3H60.67c.208 0 .402-.115.505-.302l11.557-20.81 11.64 20.894c.103.186.297.3.504.3h34.926c.21 0 .402-.114.505-.3l11.677-20.96 11.6 20.876c.104.187.297.302.506.302h13.914c.208 0 .4-.114.504-.3.104-.185.105-.413 0-.6z" fill="#1F1C1C"/>
  </g>
</svg>
