<?xml version="1.0" encoding="utf-8"?>
<!-- Generator: Adobe Illustrator 19.0.0, SVG Export Plug-In . SVG Version: 6.00 Build 0)  -->
<svg version="1.1" id="Layer_1" xmlns:sketch="http://www.bohemiancoding.com/sketch/ns"
	 xmlns="http://www.w3.org/2000/svg" xmlns:xlink="http://www.w3.org/1999/xlink" x="0px" y="0px" width="189px" height="92px"
	 viewBox="-161 211 189 92" style="enable-background:new -161 211 189 92;" xml:space="preserve">
<style type="text/css">
	.st0{fill:none;stroke:#977857;stroke-width:4;}
</style>
<title>Group Copy</title>
<desc>Created with Sketch.</desc>
<g id="view-all-project" transform="translate(22.000000, 5282.601562)" sketch:type="MSLayerGroup">
	<g id="Group-Copy" transform="translate(117.617433, 24.259728)" sketch:type="MSShapeGroup">
		<path id="Path-61-Copy" class="st0" d="M-299-5075.3l16.2-16.5l15.2,15.5l15.7-15.9l15.1,15.9"/>
		<path id="Path-61-Copy-6" class="st0" d="M-238.7-5075.3l16.5-16.5l15.5,15.5l16-15.9l15.4,15.9"/>
		<path id="Path-61-Copy-6_1_" class="st0" d="M-177.4-5075.3l16.7-16.5l15.7,15.5l16.2-15.9l15.6,15.9"/>
		<path id="Path-61-Copy-6_2_" class="st0" d="M-177.4-5058.7l16.7-16.5l15.7,15.5l16.2-15.9l15.6,15.9"/>
		<path id="Path-61-Copy-6_3_" class="st0" d="M-177.4-5042l16.7-16.5l15.7,15.5l16.2-15.9l15.6,15.9"/>
		<path id="Path-61-Copy-6_4_" class="st0" d="M-177.4-5025.4l16.7-16.5l15.7,15.5l16.2-15.9l15.6,15.9"/>
		<path id="Path-61-Copy-6_5_" class="st0" d="M-177.4-5006.1l16.7-16.5l15.7,15.5l16.2-15.9l15.6,15.9"/>
		<path id="Path-61-Copy-2" class="st0" d="M-299-5058.7l16.2-16.5l15.2,15.5l15.7-15.9l15.1,15.9"/>
		<path id="Path-61-Copy-7" class="st0" d="M-238.7-5058.6l16.5-16.5l15.5,15.5l16-15.9l15.4,15.9"/>
		<path id="Path-61-Copy-3" class="st0" d="M-299-5042l16.2-16.5l15.2,15.5l15.7-15.9l15.1,15.9"/>
		<path id="Path-61-Copy-8" class="st0" d="M-238.7-5041.9l16.5-16.5l15.5,15.5l16-15.9l15.4,15.9"/>
		<path id="Path-61-Copy-4" class="st0" d="M-299-5025.4l16.2-16.5l15.2,15.5l15.7-15.9l15.1,15.9"/>
		<path id="Path-61-Copy-9" class="st0" d="M-238.7-5025.2l16.5-16.5l15.5,15.5l16-15.9l15.4,15.9"/>
		<path id="Path-61-Copy-5" class="st0" d="M-299-5006.1l16.2-16.5l15.2,15.5l15.7-15.9l15.1,15.9"/>
		<path id="Path-61-Copy-10" class="st0" d="M-238.7-5005.9l16.5-16.5l15.5,15.5l16-15.9l15.4,15.9"/>
	</g>
</g>
</svg>
