<svg id="Layer_1" data-name="Layer 1" xmlns="http://www.w3.org/2000/svg" xmlns:xlink="http://www.w3.org/1999/xlink" viewBox="0 0 294.5 87.5"><defs><style>.cls-1,.cls-4{fill:none;}.cls-2{clip-path:url(#clip-path);}.cls-3{fill:#0095da;}.cls-4{stroke:#d2232a;stroke-width:3.72px;}.cls-5{fill:#67686b;}</style><clipPath id="clip-path" transform="translate(-13.4 -6.9)"><rect class="cls-1" x="4.4" y="5" width="64.7" height="54.56"/></clipPath></defs><title>Cogilex Logo</title><g class="cls-2"><polygon class="cls-3" points="26.8 1.3 16.4 11.3 26.8 21.3 37.1 11.3 26.8 1.3"/><polygon class="cls-3" points="42.7 16.7 32.4 26.7 42.7 36.8 53.1 26.7 42.7 16.7"/></g><rect class="cls-4" x="7.7" y="9" width="37.2" height="35.85"/><g class="cls-2"><polygon class="cls-3" points="26.3 32.7 15.9 42.7 26.3 52.7 36.6 42.7 26.3 32.7"/><polygon class="cls-3" points="10.4 17 0 27 10.4 37 20.7 27 10.4 17"/></g><path class="cls-3" d="M116.8,11.1l-3.1,6.3q-2.5-2.5-8.2-2.5a10.6,10.6,0,0,0-8.8,4.5,18.2,18.2,0,0,0-3.4,11.4q0,6.9,3.2,10.9a10.2,10.2,0,0,0,8.5,4,11.4,11.4,0,0,0,9.5-4.3l3.5,6.2q-4.7,5-13.7,5t-14-5.9q-5-5.9-5-16.1t5.5-15.9A17.8,17.8,0,0,1,105,8.1Q112.4,8.1,116.8,11.1Z" transform="translate(-13.4 -6.9)"/><path class="cls-3" d="M121.6,36q0-7.2,4.1-11.7a14.2,14.2,0,0,1,10.9-4.5q7.1,0,11.1,4.3t4,11.9q0,7.5-4,11.9t-11,4.4q-7.1,0-11.1-4.5T121.6,36Zm7.6,0q0,10.4,7.5,10.4a6.4,6.4,0,0,0,5.4-2.7q2-2.7,2-7.7,0-10.2-7.4-10.2a6.5,6.5,0,0,0-5.4,2.7Q129.2,31.1,129.2,36Z" transform="translate(-13.4 -6.9)"/><path class="cls-3" d="M155.3,59.8l4.6-5.7a12.4,12.4,0,0,0,8.6,3.5,12.6,12.6,0,0,0,5.2-.9q2.1-.9,2.1-2.6t-4.5-2.8l-3.7.3-3.7.3q-7.6,0-7.6-5.4a4.7,4.7,0,0,1,1.3-3,7.7,7.7,0,0,1,2.9-2.2,11.1,11.1,0,0,1-5.4-9.9,10.7,10.7,0,0,1,3.7-8.3,13.1,13.1,0,0,1,9.1-3.3,14.4,14.4,0,0,1,7.1,1.6l2.9-3.3,5.1,4.6-3.5,2.5a11.5,11.5,0,0,1,1.8,6.5,11.5,11.5,0,0,1-3.3,8.6,11.3,11.3,0,0,1-8.2,3.2h-2.1l-1.2-.2-1.6.6q-1.4.6-1.4,1.3t2,1.2l3-.4a18.6,18.6,0,0,1,3.7-.4q10.7,0,10.7,8.6a8.4,8.4,0,0,1-4.3,7.5A18.9,18.9,0,0,1,168.3,64,21.6,21.6,0,0,1,155.3,59.8Zm7.3-28.4a6.4,6.4,0,0,0,1.5,4.5,5.3,5.3,0,0,0,4.1,1.7,5,5,0,0,0,4-1.6,6.7,6.7,0,0,0,1.4-4.5,5.7,5.7,0,0,0-1.5-4,5.1,5.1,0,0,0-3.9-1.6,5.4,5.4,0,0,0-5.7,5.7Z" transform="translate(-13.4 -6.9)"/><path class="cls-3" d="M189.7,51.7V26.3h-4v-6h11.4V51.7Zm3.8-43.5a4.3,4.3,0,0,1,4.2,4.2,4.2,4.2,0,0,1-8.5,0,4.3,4.3,0,0,1,4.2-4.2Z" transform="translate(-13.4 -6.9)"/><path class="cls-3" d="M206.9,8.6l7.3-1.8V42.2q0,5.8,3.5,6.9a6,6,0,0,1-5.8,3.2q-5,0-5-6.9Z" transform="translate(-13.4 -6.9)"/><path class="cls-3" d="M251.3,38.3H228.9a8,8,0,0,0,2.6,5.8,9.3,9.3,0,0,0,6.4,2.1q5,0,7.6-2.6l2.8,5.6q-3.9,3.1-11.5,3.1t-11.4-4.2q-4.2-4.2-4.2-11.7t4.6-12a15,15,0,0,1,11-4.6q6.8,0,11,4.1A13.9,13.9,0,0,1,252,34.2,20.5,20.5,0,0,1,251.3,38.3Zm-22.1-5.5h15.4q-.8-6.9-7.6-6.9T229.2,32.8Z" transform="translate(-13.4 -6.9)"/><path class="cls-3" d="M278,51.7l-8.1-10.2-7.2,10.2H254l12-16.1L255,20.3h8.4l6.6,9.6,7.4-9.6h8.3l-12,15.3,13.2,16.1Z" transform="translate(-13.4 -6.9)"/><path class="cls-5" d="M81.9,86.9h-1A5.5,5.5,0,0,1,76,84.1c-1-1.5-2.1-3.3-3-4.8s-1-1.2-2.6-1.2h-1v4.8c0,2.5.3,2.7,2.7,2.9v.8H64.2v-.8c2.5-.2,2.7-.4,2.7-2.9V70.9c0-2.5-.2-2.6-2.6-2.8v-.8h7.4a8.5,8.5,0,0,1,4.8,1,4.5,4.5,0,0,1,2,3.9c0,2.6-1.6,4.2-3.8,5.1.5,1,1.8,3,2.7,4.4a26,26,0,0,0,2.4,3.1A4.3,4.3,0,0,0,82,86.1Zm-11-9.7a5,5,0,0,0,3.3-.8,4.3,4.3,0,0,0,1.6-3.7,4.1,4.1,0,0,0-4.4-4.4,2.9,2.9,0,0,0-1.6.3c-.2.1-.3.5-.3,1.3v7.4Z" transform="translate(-13.4 -6.9)"/><path class="cls-5" d="M93.7,84.1c-1.9,2.4-4,2.9-4.9,2.9-3.7,0-5.8-3-5.8-6.4a7.7,7.7,0,0,1,2-5.2,6.1,6.1,0,0,1,4.4-2.2,4.6,4.6,0,0,1,4.5,4.6c0,.6-.1.8-.7,1s-4.3.4-7.8.5c0,4.1,2.4,5.8,4.5,5.8a4.9,4.9,0,0,0,3.4-1.5ZM85.4,78h5.1c.5,0,.7-.2.7-.6a2.8,2.8,0,0,0-2.6-3C87.2,74.3,85.9,75.6,85.4,78Z" transform="translate(-13.4 -6.9)"/><path class="cls-5" d="M95.5,86.7v-.8c1.9-.2,2.1-.4,2.1-2.4V77.3c0-1.9-.1-2-1.9-2.3v-.7a18.9,18.9,0,0,0,4.3-1.2V83.5c0,2,.2,2.2,2.1,2.4v.8Zm1.6-17.6a1.5,1.5,0,0,1,1.5-1.6,1.5,1.5,0,0,1,1.5,1.6,1.5,1.5,0,0,1-1.5,1.5A1.6,1.6,0,0,1,97.1,69.1Z" transform="translate(-13.4 -6.9)"/><path class="cls-5" d="M112.1,86.7v-.8c1.8-.2,2-.4,2-2.5v-5c0-2.1-.7-3.4-2.7-3.4a5.4,5.4,0,0,0-3.3,1.5v7c0,2,.2,2.2,2,2.3v.8h-6.5v-.8c2-.2,2.2-.4,2.2-2.3V77.3c0-1.9-.2-2-1.8-2.3v-.7a18,18,0,0,0,4.2-1.2v2.4l2-1.4a4.6,4.6,0,0,1,2.5-.9c2.4,0,3.9,1.7,3.9,4.6v5.8c0,2,.1,2.2,1.9,2.3v.8Z" transform="translate(-13.4 -6.9)"/><path class="cls-5" d="M132.7,74.3c-1.6.2-1.8.5-2.6,2.3s-2.6,5.9-4.2,10.4H125c-1.4-3.6-2.7-7-4.1-10.5-.7-1.7-.9-1.9-2.5-2.2v-.7h6.1v.8c-1.6.2-1.7.5-1.2,1.7s2,5.2,2.9,7.4c1-2.5,2-5.2,2.7-7.2s.3-1.8-1.4-2v-.7h5.3Z" transform="translate(-13.4 -6.9)"/><path class="cls-5" d="M143.9,84.1c-1.9,2.4-4,2.9-4.9,2.9-3.7,0-5.9-3-5.9-6.4a7.7,7.7,0,0,1,2-5.2,6.1,6.1,0,0,1,4.4-2.2,4.6,4.6,0,0,1,4.5,4.6c0,.6-.1.8-.7,1s-4.3.4-7.8.5c0,4.1,2.4,5.8,4.5,5.8a4.9,4.9,0,0,0,3.4-1.5ZM135.7,78h5.1c.5,0,.7-.2.7-.6a2.8,2.8,0,0,0-2.6-3C137.4,74.3,136.1,75.6,135.7,78Z" transform="translate(-13.4 -6.9)"/><path class="cls-5" d="M154.2,86.7v-.8c1.8-.2,2-.4,2-2.5v-5c0-2.1-.7-3.4-2.7-3.4a5.4,5.4,0,0,0-3.3,1.5v7c0,2,.2,2.2,2,2.3v.8h-6.5v-.8c2-.2,2.2-.4,2.2-2.3V77.3c0-1.9-.2-2-1.8-2.3v-.7a18,18,0,0,0,4.2-1.2v2.4l2-1.4a4.6,4.6,0,0,1,2.5-.9c2.4,0,3.9,1.7,3.9,4.6v5.8c0,2,.1,2.2,1.9,2.3v.8Z" transform="translate(-13.4 -6.9)"/><path class="cls-5" d="M167.5,86.6a3,3,0,0,1-1.3.4c-1.9,0-2.9-1.2-2.9-3.6V74.7h-2.1v-.3l.8-.9h1.4V71.4l2-2h.4v4.1h3.4a.9.9,0,0,1-.2,1.2h-3.2v7.7c0,2.4,1,2.9,1.7,2.9a4.3,4.3,0,0,0,1.9-.5l.3.8Z" transform="translate(-13.4 -6.9)"/><path class="cls-5" d="M170.9,86.7v-.8c1.9-.2,2.1-.4,2.1-2.4V77.3c0-1.9-.1-2-1.9-2.3v-.7a18.9,18.9,0,0,0,4.3-1.2V83.5c0,2,.2,2.2,2.1,2.4v.8Zm1.6-17.6a1.5,1.5,0,0,1,1.5-1.6,1.5,1.5,0,0,1,1.5,1.6,1.5,1.5,0,0,1-1.5,1.5A1.6,1.6,0,0,1,172.4,69.1Z" transform="translate(-13.4 -6.9)"/><path class="cls-5" d="M187.4,86.7v-.8c1.8-.2,2-.4,2-2.5v-5c0-2.1-.7-3.4-2.7-3.4a5.4,5.4,0,0,0-3.3,1.5v7c0,2,.2,2.2,2,2.3v.8h-6.5v-.8c2-.2,2.2-.4,2.2-2.3V77.3c0-1.9-.2-2-1.8-2.3v-.7a18,18,0,0,0,4.2-1.2v2.4l2-1.4a4.6,4.6,0,0,1,2.5-.9c2.4,0,3.9,1.7,3.9,4.6v5.8c0,2,.1,2.2,1.9,2.3v.8Z" transform="translate(-13.4 -6.9)"/><path class="cls-5" d="M208.2,73.8a4.8,4.8,0,0,1-1.3,1.5h-1.7a4,4,0,0,1,.9,2.7c0,3.2-2.7,4.8-5.2,4.8h-1.5a1.9,1.9,0,0,0-.9,1.2c0,.6.5,1.2,1.9,1.2h3.2c1.9,0,4.3.6,4.3,3.5s-3.5,5.9-7.5,5.9-5.2-2-5.2-3.7a2.3,2.3,0,0,1,.7-1.7l2.5-2.1a4,4,0,0,1-2.2-1.6,2.2,2.2,0,0,1-.3-1.3,6.5,6.5,0,0,0,2.6-1.8,4.3,4.3,0,0,1-2.6-4c0-3.4,3.1-5,5.4-5a6,6,0,0,1,2.9.8l4.1-.4Zm-9.4,13.9a3.2,3.2,0,0,0-1.4,2.3c0,1.6,1.7,2.8,4,2.8s4.3-1.5,4.3-3.3a2.2,2.2,0,0,0-1.4-2.1,7.7,7.7,0,0,0-2.9-.4A3.6,3.6,0,0,0,198.8,87.7Zm-.5-10c0,2.3,1.1,4,2.8,4s2.5-1.2,2.5-3.6-1.1-4-2.8-4S198.2,75.4,198.2,77.7Z" transform="translate(-13.4 -6.9)"/><path class="cls-5" d="M226.4,71.7c-.5-1.9-1.3-4-3.9-4a3.1,3.1,0,0,0-3.3,3.3c0,2.2,1.4,3.2,3.8,4.4s5.2,2.6,5.2,6-2.7,5.7-6.7,5.7a10.4,10.4,0,0,1-2.9-.5l-1.5-.6a36.8,36.8,0,0,1-.8-4.6l.9-.2c.5,1.8,1.8,4.9,4.9,4.9a3.3,3.3,0,0,0,3.6-3.6c0-2.2-1.6-3.3-3.9-4.5s-5-2.5-5-5.9,2.3-5.3,6.2-5.3a12.4,12.4,0,0,1,3.8.7c.1,1.1.3,2.2.5,4.1Z" transform="translate(-13.4 -6.9)"/><path class="cls-5" d="M241.4,84.1c-1.9,2.4-4,2.9-4.9,2.9-3.7,0-5.8-3-5.8-6.4a7.7,7.7,0,0,1,2-5.2,6.1,6.1,0,0,1,4.4-2.2,4.6,4.6,0,0,1,4.5,4.6c0,.6-.1.8-.7,1s-4.3.4-7.8.5c0,4.1,2.4,5.8,4.5,5.8a4.9,4.9,0,0,0,3.4-1.5ZM233.2,78h5.1c.5,0,.7-.2.7-.6a2.8,2.8,0,0,0-2.6-3C235,74.3,233.7,75.6,233.2,78Z" transform="translate(-13.4 -6.9)"/><path class="cls-5" d="M253,87a2.4,2.4,0,0,1-1.4-.6,3.1,3.1,0,0,1-.7-1.3c-1.2.8-2.6,1.9-3.5,1.9a3.6,3.6,0,0,1-3.6-3.7c0-1.5.8-2.4,2.4-3a21.5,21.5,0,0,0,4.7-2v-.5c0-2.2-1-3.4-2.5-3.4a1.7,1.7,0,0,0-1.3.6,4.4,4.4,0,0,0-.9,2,.8.8,0,0,1-.9.7,1.5,1.5,0,0,1-1.3-1.3c0-.4.4-.8,1-1.2a13.4,13.4,0,0,1,4.5-2.1,3.9,3.9,0,0,1,2.5.8,4.4,4.4,0,0,1,1.3,3.7v5.6c0,1.3.5,1.8,1,1.8a2.3,2.3,0,0,0,1.1-.3l.3.8Zm-2.2-7.6-2.7,1.3c-1.2.5-1.8,1.1-1.8,2.2a2.2,2.2,0,0,0,2.1,2.3,4.3,4.3,0,0,0,2.4-1.1Z" transform="translate(-13.4 -6.9)"/><path class="cls-5" d="M260.9,76.4c.9-1.5,2.2-3.2,3.6-3.2a1.5,1.5,0,0,1,.8,3,.7.7,0,0,1-.8-.1,1.6,1.6,0,0,0-1.3-.6c-.8,0-1.7.9-2.4,2.6v5.5c0,2,.2,2.2,2.5,2.3v.8h-6.9v-.8c1.9-.2,2.1-.4,2.1-2.3V77.3c0-2-.1-2.1-1.9-2.3v-.7a17,17,0,0,0,4.2-1.2v3.3Z" transform="translate(-13.4 -6.9)"/><path class="cls-5" d="M278.5,84c-1.3,1.7-3.3,3.1-5.1,3.1a6,6,0,0,1-6-6.3,7.2,7.2,0,0,1,3-5.9,7.9,7.9,0,0,1,4.5-1.7,4.5,4.5,0,0,1,2.7.8,1.1,1.1,0,0,1,.5.9,1.5,1.5,0,0,1-1,1.3l-.6-.3a4.4,4.4,0,0,0-3-1.2c-2,0-3.7,1.6-3.7,4.8s2.8,5.5,4.5,5.5a4.9,4.9,0,0,0,3.7-1.7Z" transform="translate(-13.4 -6.9)"/><path class="cls-5" d="M287.8,86.7v-.8c1.7-.2,2-.4,2-2.3v-5c0-2.5-.9-3.7-2.9-3.7a4.2,4.2,0,0,0-3.1,1.5v7.1c0,1.9.2,2.1,1.9,2.3v.8h-6.4v-.8c1.8-.1,2.1-.3,2.1-2.3V69.3c0-1.9-.1-2-2-2.2v-.7a32.8,32.8,0,0,0,4.4-1V75.4a6.6,6.6,0,0,1,4.3-2.2c2.4,0,4.1,1.5,4.1,5.1v5.3c0,2,.2,2.2,2,2.3v.8Z" transform="translate(-13.4 -6.9)"/><path class="cls-5" d="M300,69.1c-.1-.4-.2-.7-.3-.8a1,1,0,0,0-.7-.2h-.5V71c0,.8,0,.9.8.9v.5h-2.6v-.5c.8,0,.8-.1.8-.9V68.1h-.4a.9.9,0,0,0-.7.2,1.6,1.6,0,0,0-.3.8h-.4c0-.7.1-1.3.1-1.7h4l.4-.2h.4c0,.3,0,1,.1,1.7Zm5.5,3.3v-.5c.7,0,.7-.1.7-.8V68.3h-.1l-1.7,3.9h-.4l-1.6-3.7h0v1.7c0,.6,0,.9,0,1.2s.2.4.7.4v.5h-2.1v-.5c.5,0,.6-.1.7-.4a7.5,7.5,0,0,0,.2-1.3V69c.1-.8,0-.9-.7-.9v-.5h1.9l1.5,3,1.5-3h1.9v.5c-.6,0-.7.1-.7.8v2c0,.9.1.9.7,1v.5Z" transform="translate(-13.4 -6.9)"/></svg>