<?xml version="1.0" encoding="utf-8"?>
<!-- Generator: Adobe Illustrator 21.1.0, SVG Export Plug-In . SVG Version: 6.00 Build 0)  -->
<svg version="1.1" id="Layer_1" xmlns="http://www.w3.org/2000/svg" xmlns:xlink="http://www.w3.org/1999/xlink" x="0px" y="0px"
	 viewBox="0 0 704 211.6" style="enable-background:new 0 0 704 211.6;" xml:space="preserve">
<style type="text/css">
	.st0{fill:#251159;}
	.st1{fill:#FF0066;}
	.st2{fill:url(#SVGID_1_);}
</style>
<g>
	<path class="st0" d="M297,63.9c1.2,0.1,1.9,0.8,1.9,2v5.5c0,1.2-0.6,1.8-1.8,1.8h-22.1c-20.4,0-23.9,7.8-23.9,34.8
		c0,26.9,3.5,34.7,23.9,34.7h22.1c1.2,0,1.8,0.6,1.8,1.8v5.5c0,1.2-0.7,1.9-1.9,2.1c-5.9,0.8-14.3,1.1-21.9,1.1
		c-28.8,0-35.8-10.3-35.8-45.2c0-34.9,7.1-45.3,35.8-45.3C282.8,62.7,291.1,63.1,297,63.9z"/>
	<path class="st0" d="M353.8,106v41.3c0,1.1,0,2.5-2.2,3.3c-4.1,1.5-14.4,2.6-26.2,2.6c-15.6,0-22.8-3.2-22.8-19
		c0-14.2,7.4-18.2,20.9-18.2l19-0.1V108c0-7.3-4.2-10.6-15.3-10.6h-17.7c-1.4,0-1.8-0.4-1.8-1.8v-4.8c0-1.4,0.5-1.7,1.7-1.9
		c7-1.2,12.9-1.4,17.8-1.4C345.5,87.5,353.8,93.2,353.8,106z M323.7,125.1c-6.5,0-9.9,2.1-9.9,8.8c0,7.8,3.9,9.6,13.6,9.6
		c3.7,0,10.6-0.2,15.1-1.4v-17H323.7z"/>
	<path class="st0" d="M418.4,115.1v35.7c0,1.2-0.8,1.8-2,1.8h-7.5c-1.2,0-1.8-0.6-1.8-1.8V116c0-18-3.5-18.6-14.9-18.6H376v53.4
		c0,1.2-0.6,1.8-1.8,1.8h-7.8c-1.2,0-1.8-0.6-1.8-1.8V91.3c0-1.5,0.6-1.7,1.8-1.9c9.2-1.8,18.9-1.9,24.5-1.9
		C412.1,87.5,418.4,90.1,418.4,115.1z"/>
	<path class="st0" d="M476.6,106v41.3c0,1.1,0,2.5-2.2,3.3c-4.1,1.5-14.4,2.6-26.2,2.6c-15.6,0-22.8-3.2-22.8-19
		c0-14.2,7.4-18.2,20.9-18.2l19-0.1V108c0-7.3-4.2-10.6-15.3-10.6h-17.7c-1.4,0-1.8-0.4-1.8-1.8v-4.8c0-1.4,0.5-1.7,1.7-1.9
		c7-1.2,12.9-1.4,17.8-1.4C468.4,87.5,476.6,93.2,476.6,106z M446.6,125.1c-6.5,0-9.9,2.1-9.9,8.8c0,7.8,3.9,9.6,13.6,9.6
		c3.7,0,10.6-0.2,15.1-1.4v-17H446.6z"/>
	<path class="st0" d="M538,63.4c1.2,0,1.8,0.6,1.8,1.8v84.1c0,1.3-0.7,1.8-1.9,1.9c-10.4,1.7-15.7,2-24.5,2
		c-22.9,0-27.5-6.5-27.5-32.7c0-26.2,4.6-33,26.9-33c6.7,0,12.1,0.4,15.7,0.8V65.2c0-1.2,0.6-1.8,1.8-1.8H538z M513.4,97.4
		c-14.6,0-16.3,4.5-16.3,23c0,18.2,1.5,22.9,16.2,22.9c4.6,0,10.4-0.4,15.1-0.9V97.4H513.4z"/>
	<path class="st0" d="M598.4,106v41.3c0,1.1,0,2.5-2.2,3.3c-4.1,1.5-14.4,2.6-26.2,2.6c-15.6,0-22.8-3.2-22.8-19
		c0-14.2,7.4-18.2,20.9-18.2l19-0.1V108c0-7.3-4.2-10.6-15.3-10.6h-17.7c-1.4,0-1.8-0.4-1.8-1.8v-4.8c0-1.4,0.5-1.7,1.7-1.9
		c7-1.2,12.9-1.4,17.8-1.4C590.2,87.5,598.4,93.2,598.4,106z M568.4,125.1c-6.5,0-9.9,2.1-9.9,8.8c0,7.8,3.9,9.6,13.6,9.6
		c3.7,0,10.6-0.2,15.1-1.4v-17H568.4z"/>
	<path class="st1" d="M621.4,146.2c0,4.5-2.4,7-7,7c-4.5,0-7-2.5-7-7c0-4.4,2.5-6.7,7-6.7C619.1,139.5,621.4,141.9,621.4,146.2z"/>
	<path class="st0" d="M678.2,106v41.3c0,1.1,0,2.5-2.2,3.3c-4.1,1.5-14.4,2.6-26.2,2.6c-15.6,0-22.8-3.2-22.8-19
		c0-14.2,7.4-18.2,20.9-18.2l19-0.1V108c0-7.3-4.2-10.6-15.3-10.6h-17.7c-1.4,0-1.8-0.4-1.8-1.8v-4.8c0-1.4,0.5-1.7,1.7-1.9
		c7-1.2,12.9-1.4,17.8-1.4C669.9,87.5,678.2,93.2,678.2,106z M648.1,125.1c-6.5,0-9.9,2.1-9.9,8.8c0,7.8,3.9,9.6,13.6,9.6
		c3.7,0,10.6-0.2,15.1-1.4v-17H648.1z"/>
	<path class="st0" d="M701.9,69.2c0,4.5-2.4,7-7,7c-4.5,0-7-2.5-7-7c0-4.5,2.5-6.8,7-6.8C699.5,62.4,701.9,64.7,701.9,69.2z
		 M698.8,88.1c1.2,0,1.8,0.6,1.8,1.8v61c0,1.2-0.6,1.8-1.8,1.8H691c-1.2,0-1.8-0.6-1.8-1.8v-61c0-1.2,0.6-1.8,1.8-1.8H698.8z"/>
</g>
<linearGradient id="SVGID_1_" gradientUnits="userSpaceOnUse" x1="104.4776" y1="1.0001" x2="104.4776" y2="214.2877">
	<stop  offset="0" style="stop-color:#FF0066"/>
	<stop  offset="1" style="stop-color:#321575"/>
</linearGradient>
<path class="st2" d="M201,107.4c-1.8,0-3.4,0.8-4.5,2.2l-5-1c-0.3-1.4-1.1-2.7-2.2-3.6l6.2-29.5c2.5-0.7,4.3-3,4.3-5.6
	c0-3.2-2.6-5.9-5.9-5.9c-2.6,0-4.9,1.8-5.6,4.2L158.7,75c-0.9-1.1-2.2-1.8-3.5-2l-1.3-6.4c1.3-1.1,2.1-2.7,2.1-4.5
	c0-3.2-2.6-5.9-5.9-5.9c-3.2,0-5.9,2.6-5.9,5.9c0,1,0.3,2,0.7,2.9l-7.3,10.3l5.1-36.9c2.3-0.9,3.8-3,3.8-5.5c0-3.2-2.6-5.9-5.9-5.9
	c-3.2,0-5.9,2.6-5.9,5.9c0,0.2,0,0.4,0,0.6l-6.9,4.6l-18.2-27.8c0.4-0.8,0.7-1.7,0.7-2.7c0-3.2-2.6-5.9-5.9-5.9s-5.9,2.6-5.9,5.9
	c0,1,0.3,2,0.8,2.9L82,38.5l-7.5-5c0.1-0.3,0.1-0.6,0.1-0.9c0-3.2-2.6-5.9-5.9-5.9s-5.9,2.6-5.9,5.9c0,2.4,1.5,4.6,3.8,5.4l5.1,37.6
	l-7.7-10.9c0.4-0.8,0.6-1.7,0.6-2.6c0-3.2-2.6-5.9-5.9-5.9c-3.2,0-5.9,2.6-5.9,5.9c0,1.8,0.9,3.5,2.3,4.6l-1.4,6.9
	c-1,0.2-1.9,0.8-2.6,1.5l-30.5-6.9c-0.7-2.5-3-4.2-5.6-4.2c-3.2,0-5.9,2.6-5.9,5.9c0,2.7,1.9,5.1,4.5,5.7l6.1,29.3
	c-1.3,0.9-2.2,2.2-2.4,3.8l-5,1c-1.1-1.4-2.8-2.2-4.6-2.2c-3.2,0-5.9,2.6-5.9,5.9c0,3.2,2.6,5.9,5.9,5.9c1,0,1.9-0.2,2.8-0.7
	l42.9,28c0,0.2,0,0.5,0,0.7c0,1.8,0.8,3.5,2.2,4.6l-2.3,8.9c-2.6,0.6-4.5,2.9-4.5,5.7c0,3.2,2.6,5.9,5.9,5.9c2.6,0,4.8-1.6,5.5-4
	l37.1-6l4.1,36.8c-1.7,1.1-2.8,3-2.8,5c0,3.2,2.6,5.9,5.9,5.9s5.9-2.6,5.9-5.9c0-1.9-0.9-3.6-2.4-4.7l4.2-37.1l37.4,6
	c0.8,2.3,3,3.9,5.5,3.9c3.2,0,5.9-2.6,5.9-5.9c0-2.9-2.1-5.4-5-5.8l-2.4-9.1c1.4-1.1,2.2-2.8,2.2-4.5c0-0.2,0-0.4,0-0.7l42.5-27.7
	c0.8,0.4,1.7,0.6,2.6,0.6c3.2,0,5.9-2.6,5.9-5.9C206.8,110,204.2,107.4,201,107.4z M104.9,181.4l-2-18.1c1.3,0.4,2.8,0.4,4.1-0.2
	L104.9,181.4z M60.9,152.7c1.2-0.3,2.3-1,3.1-2l27.9,7L59.7,163c-0.3-0.5-0.7-0.9-1.1-1.2L60.9,152.7z M48.9,98.9
	c-2.2,0.5-4,2.2-4.5,4.4l-16.2,3.2c-0.7-1.1-1.8-2-3.1-2.4l-6.2-29.7c0.4-0.3,0.7-0.7,1-1.1l29.6,6.7c0.2,1.6,1,3,2.3,3.9L48.9,98.9
	z M28.8,111.7l16.8-3.3c1.5,1.8,4.1,2.6,6.5,1.7l43.8,43.3l-30.7-7.7c-0.6-2.6-3-4.5-5.7-4.5c-1.1,0-2.1,0.3-3,0.8l-42.1-27.5
	l4.7-0.9c1.1,1.2,2.6,1.9,4.3,1.9C25.7,115.5,27.9,114,28.8,111.7z M61.2,79.4c0-1.8-0.8-3.4-2.2-4.6l1.3-6.4l38.8,54.9
	c-0.1,0.4-0.2,0.8-0.2,1.2c-0.2,2.4,1.1,4.7,3.3,5.7v22.1l-46.4-45.9c0.2-0.6,0.3-1.1,0.3-1.7c0-1.7-0.7-3.3-2-4.4L57,85
	C59.4,84.3,61.2,82,61.2,79.4z M102.1,61.8v56.8L78.2,84.8c0,0,0-0.1,0-0.1L71.8,38l27,18.1c0,0.2,0,0.4,0,0.5
	C98.8,58.8,100.1,60.8,102.1,61.8z M110.5,56.1L137.6,38l-6.4,46.1c0,0.1,0,0.2,0,0.3l-23.9,33.9V61.8c2-1,3.2-3,3.2-5.2
	C110.5,56.4,110.5,56.3,110.5,56.1z M110.2,123.2l38.7-54.7l1.2,6.2c-1.2,1.1-1.8,2.6-1.8,4.2c0,2.4,1.5,4.6,3.7,5.4l3.2,15.8
	c-1.4,1.1-2.2,2.8-2.2,4.6c0,0.6,0.1,1.3,0.3,1.9l-46,45.6v-21.9c1.8-0.9,3-2.7,3.2-4.7C110.6,124.7,110.5,123.9,110.2,123.2z
	 M107.8,51.7c-0.9-0.6-2-0.9-3.1-0.9c-1.1,0-2.2,0.3-3.1,0.9L86.3,41.4l17.6-27.9c0.6,0.1,1.2,0.1,1.8,0l18,27.6L107.8,51.7z
	 M163.4,108.3l16.8,3.3c0.8,2.3,3,3.9,5.5,3.9c1.7,0,3.2-0.7,4.3-1.9l4.9,1L153,141.9c-0.9-0.5-1.9-0.8-3-0.8c-2.8,0-5.2,2-5.7,4.7
	l-31.1,7.8l43.8-43.4C159.3,110.9,161.9,110.2,163.4,108.3z M184.1,104c-1.3,0.4-2.5,1.3-3.3,2.4l-16.2-3.2
	c-0.5-2.1-2.1-3.8-4.2-4.3l-3-15.2c1.3-0.8,2.3-2.1,2.6-3.7l29.2-6.6c0.3,0.4,0.7,0.8,1.2,1.2L184.1,104z M145.6,150.8
	c0.8,0.9,1.8,1.5,3,1.8l2.5,9.6c-0.3,0.3-0.6,0.6-0.8,0.9l-32.6-5.3L145.6,150.8z"/>
</svg>
