<svg id="Layer_1" data-name="Layer 1" xmlns="http://www.w3.org/2000/svg" viewBox="0 0 283.95 63.33"><defs><style>.cls-1{fill:#fff;}.cls-2{fill:#7aa42f;}</style></defs><title>Vector Smart Object3</title><path class="cls-1" d="M60.12,54.78h.14l10-12.24H82.63L68.55,57.22l15.16,18.7H71.21L60.26,61.71h-.14V75.92H50.6V28h9.52Z" transform="translate(-16.43 -13.68)"/><path class="cls-1" d="M117.38,75.92H108V72.86h-.14a11.54,11.54,0,0,1-9,4.15c-9.79,0-15.37-8.91-15.37-18,0-8.84,5.64-17.61,15.23-17.61A12.35,12.35,0,0,1,108,45.67V42.54h9.38ZM108.95,59.2c0-4.49-3.06-9.31-8-9.31S93.1,54.71,93.1,59.2s3,9.38,7.89,9.38S108.95,63.68,108.95,59.2Z" transform="translate(-16.43 -13.68)"/><path class="cls-1" d="M133.22,75.92H123.7V28h9.52Z" transform="translate(-16.43 -13.68)"/><path class="cls-1" d="M173.85,59.26c0,10.33-7.07,17.75-17.54,17.75s-17.54-7.41-17.54-17.75,7.14-17.81,17.54-17.81S173.85,48.86,173.85,59.26Zm-25.43,0c0,4.49,3,9.31,7.89,9.31s7.89-4.83,7.89-9.31-3-9.38-7.89-9.38S148.42,54.64,148.42,59.26Z" transform="translate(-16.43 -13.68)"/><path class="cls-1" d="M213.57,59.26C213.57,69.6,206.5,77,196,77s-17.54-7.41-17.54-17.75S185.62,41.45,196,41.45,213.57,48.86,213.57,59.26Zm-25.43,0c0,4.49,3,9.31,7.89,9.31s7.89-4.83,7.89-9.31-3-9.38-7.89-9.38S188.14,54.64,188.14,59.26Z" transform="translate(-16.43 -13.68)"/><path class="cls-1" d="M228.69,45.59h.14A10,10,0,0,1,237,41.51a10.58,10.58,0,0,1,9.59,5.24,11.56,11.56,0,0,1,9.72-5.24c8.5,0,10.61,6.39,10.61,13.67V76h-9.52V58.44c0-3.26.2-9.32-4.49-9.32-5.17,0-5.1,7-5.1,10.47V76h-9.52V59.06c0-3.26.41-9.93-4.55-9.93-5.3,0-5,6.94-5,10.47V76h-9.52V42.6h9.52Z" transform="translate(-16.43 -13.68)"/><polygon class="cls-2" points="269.93 28.96 255.96 28.96 269.98 45.63 255.96 62.31 269.93 62.31 283.95 45.63 269.93 28.96"/><polygon class="cls-2" points="163.23 14.02 163.23 27.99 179.9 13.97 196.57 27.99 196.57 14.02 179.9 0 163.23 14.02"/><polygon class="cls-2" points="14.02 28.9 27.99 28.9 13.97 45.57 27.99 62.24 14.02 62.24 0 45.57 14.02 28.9"/></svg>