<svg xmlns="http://www.w3.org/2000/svg" viewBox="0 0 397.48 84"><defs><style>.a{fill:#f36c21;}.b{fill:#464646;}</style></defs><title>Artboard 1</title><path class="a" d="M123.69,71.58a6.45,6.45,0,0,0,5.65,3.82H180a6.45,6.45,0,0,0,5.68-3.9,9,9,0,0,0,0-7.77l-26-52.06A6.45,6.45,0,0,0,154,7.87H154a6.49,6.49,0,0,0-5.64,4l-24.7,52.06A9,9,0,0,0,123.69,71.58Zm30.49-40.46,14.37,28.82h-28Z"/><path class="b" d="M14.49,10.26A2.28,2.28,0,0,1,16.81,8h8.48a2.34,2.34,0,0,1,2.31,2.31v26L51.88,8.92a2.3,2.3,0,0,1,1.83-1h9.64a2,2,0,0,1,1.54,3.47L39.74,39.75,66.72,72A2.11,2.11,0,0,1,65,75.4H54.48a2.09,2.09,0,0,1-1.73-.67L27.6,43.7V73.09a2.34,2.34,0,0,1-2.31,2.31H16.81a2.28,2.28,0,0,1-2.31-2.31Z"/><path class="b" d="M74.11,9.78A1.83,1.83,0,0,1,75.94,8h39.22A1.83,1.83,0,0,1,117,9.78v7.9a1.83,1.83,0,0,1-1.83,1.83H86.64v15.8h23.8a1.9,1.9,0,0,1,1.83,1.83v8A1.83,1.83,0,0,1,110.44,47H86.64V63.84h28.52A1.83,1.83,0,0,1,117,65.67v7.9a1.83,1.83,0,0,1-1.83,1.83H75.94a1.83,1.83,0,0,1-1.83-1.83Z"/><path class="b" d="M197.14,19.51H182.4a1.83,1.83,0,0,1-1.83-1.83V9.78A1.83,1.83,0,0,1,182.4,8h42.11a1.83,1.83,0,0,1,1.83,1.83v7.9a1.83,1.83,0,0,1-1.83,1.83H209.77V73.57a1.9,1.9,0,0,1-1.83,1.83h-9a1.9,1.9,0,0,1-1.83-1.83Z"/><path class="b" d="M234.43,9.78A1.83,1.83,0,0,1,236.26,8h39.22a1.83,1.83,0,0,1,1.83,1.83v7.9a1.83,1.83,0,0,1-1.83,1.83H247v15.8h23.8a1.9,1.9,0,0,1,1.83,1.83v8A1.83,1.83,0,0,1,270.76,47H247V63.84h28.52a1.83,1.83,0,0,1,1.83,1.83v7.9a1.83,1.83,0,0,1-1.83,1.83H236.26a1.83,1.83,0,0,1-1.83-1.83Z"/><path class="b" d="M305.26,40.81,286,10.65A1.73,1.73,0,0,1,287.62,8H298.8a1.92,1.92,0,0,1,1.54.87l12.33,20.43h.1L325.3,8.82A1.77,1.77,0,0,1,326.84,8H338a1.73,1.73,0,0,1,1.64,2.7L320.29,40.81l20,31.89a1.72,1.72,0,0,1-1.64,2.7H328.29a2,2,0,0,1-1.64-.87L312.87,52.47h-.29L299,74.53a2.11,2.11,0,0,1-1.64.87H287c-1.73,0-2.51-1.45-1.73-2.7Z"/><path class="b" d="M361,19.51H346.31a1.83,1.83,0,0,1-1.83-1.83V9.78A1.83,1.83,0,0,1,346.31,8h42.11a1.83,1.83,0,0,1,1.83,1.83v7.9a1.83,1.83,0,0,1-1.83,1.83H373.67V73.57a1.9,1.9,0,0,1-1.83,1.83h-9A1.9,1.9,0,0,1,361,73.57Z"/></svg>