<svg id="d8f2b877-212f-4897-a3a8-bf93ee0742ff" data-name="Layer 1" xmlns="http://www.w3.org/2000/svg" viewBox="0 0 260.709 74.7"><title>kinova</title><path d="M152.9,73.3l.1-8.9,7.6.1c1.3,0,2,.6,2,1.8v2.1c0,1.2-.7,1.7-2,1.7h-1.2l4.1,3.4h-3l-3.6-3.4h-2v3.4Zm6.8-7.3H155v2.5l4.7.1a1.483,1.483,0,0,0,.7-.1.6.6,0,0,0,.3-.6V66.8a.6.6,0,0,0-.3-.6,1.445,1.445,0,0,0-.7-.2" transform="translate(0)" fill="#231f20"/><path d="M167.8,66.7a2.457,2.457,0,0,1,.5-1.7,2.646,2.646,0,0,1,1.8-.4l6.6.1a2.284,2.284,0,0,1,1.7.5,2.059,2.059,0,0,1,.4,1.7l-.1,4.7a2.457,2.457,0,0,1-.5,1.7,2.646,2.646,0,0,1-1.8.4l-6.6-.1a2.284,2.284,0,0,1-1.7-.5,2.059,2.059,0,0,1-.4-1.7Zm2,5.2,6.8.1.1-5.7-6.8-.1Z" transform="translate(0)" fill="#231f20"/><path d="M183.9,73.7l.1-8.9,7.6.1c1.3,0,2,.6,2,1.8v1.1c0,.9-.5,1.4-1.6,1.5,1.1.2,1.6.7,1.6,1.7v1.1c0,1.2-.9,1.7-2.6,1.7Zm6.9-7.4-4.7-.1v2.1l4.7.1c.6,0,1-.2,1-.6V67a.916.916,0,0,0-1-.7m-.1,3.6-4.7-.1v2.3l4.7.1c.3,0,.6,0,.7-.1.2-.1.3-.3.3-.7v-.7a.779.779,0,0,0-.3-.7,3.548,3.548,0,0,0-.7-.1" transform="translate(0)" fill="#231f20"/><path d="M198.6,67.1a2.457,2.457,0,0,1,.5-1.7,2.646,2.646,0,0,1,1.8-.4l6.6.1a2.284,2.284,0,0,1,1.7.5,2.059,2.059,0,0,1,.4,1.7l-.1,4.7a2.457,2.457,0,0,1-.5,1.7,2.646,2.646,0,0,1-1.8.4l-6.6-.1a2.284,2.284,0,0,1-1.7-.5,2.059,2.059,0,0,1-.4-1.7Zm2,5.1,6.8.1.1-5.7-6.8-.1Z" transform="translate(0)" fill="#231f20"/><polygon points="220 66.8 219.9 74.2 217.8 74.1 217.9 66.8 213.8 66.8 213.8 65.2 224.1 65.3 224.1 66.9 220 66.8" fill="#231f20"/><rect x="224.873" y="68.764" width="8.9" height="2.1" transform="matrix(0.012, -1, 1, 0.012, 156.677, 298.255)" fill="#231f20"/><path d="M243.3,67.1l-5.6-.1-.1,5.7,5.6.1V70.9l2.1.5v1.1a2.457,2.457,0,0,1-.5,1.7,2.646,2.646,0,0,1-1.8.4l-5.3-.1A2.284,2.284,0,0,1,236,74a2.059,2.059,0,0,1-.4-1.7l.1-4.7a2.457,2.457,0,0,1,.5-1.7,2.646,2.646,0,0,1,1.8-.4l5.3.1a2.284,2.284,0,0,1,1.7.5,2.059,2.059,0,0,1,.4,1.7v.8l-2.1.3Z" transform="translate(0)" fill="#231f20"/><path d="M258.4,67.3l-5.9-.1v1.9l5.6.1a2.763,2.763,0,0,1,1.8.5,2.457,2.457,0,0,1,.5,1.7v1.2a2.457,2.457,0,0,1-.5,1.7,2.646,2.646,0,0,1-1.8.4l-5.5-.1a2.284,2.284,0,0,1-1.7-.5,2.457,2.457,0,0,1-.5-1.7v-.2l1.8-.4v1.1l6.3.1V71l-5.6-.1a2.284,2.284,0,0,1-1.7-.5,2.059,2.059,0,0,1-.4-1.7v-1a2.457,2.457,0,0,1,.5-1.7,2.646,2.646,0,0,1,1.8-.4l5.1.1a3.232,3.232,0,0,1,1.7.4,2.07,2.07,0,0,1,.5,1.5v.2l-1.8.4Z" transform="translate(0)" fill="#231f20"/><path d="M167.1,52.7l-27.8-.3a6.9,6.9,0,0,1-6.9-7.1l.2-17.3a6.9,6.9,0,0,1,7.1-6.9l27.8.3a6.9,6.9,0,0,1,6.9,7.1l-.2,17.3a7.155,7.155,0,0,1-7.1,6.9m-26.9-8.1,26.3.3.2-15.8-26.3-.3Z" transform="translate(0)" fill="#231f20"/><path d="M35.2,19.8h-.7a7.088,7.088,0,0,0-7.1,6.9L27.2,44a7.088,7.088,0,0,0,6.9,7.1h.7Z" transform="translate(0)" fill="#231f20"/><path d="M48.7,35.6,68.6,51.5l-10-.1a6.784,6.784,0,0,1-4.4-1.6L39.1,38A3.631,3.631,0,0,1,38,35.4a3.367,3.367,0,0,1,1.2-2.6L54.6,21.5A6.706,6.706,0,0,1,59,20l10,.1Z" transform="translate(0)" fill="#231f20"/><path d="M72.5,11.8a5.35,5.35,0,1,0,10.7.1,5.35,5.35,0,0,0-10.7-.1" transform="translate(0)" fill="#00adee"/><path d="M69.3,6.8A49.159,49.159,0,0,0,44.6,0a46.954,46.954,0,0,0-5.3.2c-1.6.1-3.3.3-5,.5a46.439,46.439,0,0,0-10,2.7,42.7,42.7,0,0,0-9.6,5.2,46.99,46.99,0,0,0-4.3,3.5,36.045,36.045,0,0,0-3.7,4.1,32.917,32.917,0,0,0-3,4.6,31.648,31.648,0,0,0-2.2,5,25.044,25.044,0,0,0-.7,2.6,21.578,21.578,0,0,0-.5,2.7l-.1.7c0,.2-.1.5-.1.6,0,.4-.1.8-.1,1.2v2.6a30.149,30.149,0,0,0,1.7,9.3,34.493,34.493,0,0,0,3.5,7.2,47.645,47.645,0,0,0,3.7,4.9,6.47,6.47,0,0,1,.8.9l.8.8.7.7c.2.2.4.3.5.5l.9.9c.1.1.2.2.3.2a4.342,4.342,0,0,0,5.4-6.8,8.73,8.73,0,0,0-1-.8,2.181,2.181,0,0,1-.5-.4c-.2-.1-.3-.3-.5-.4-.2-.2-.4-.3-.6-.5L15,52a23.785,23.785,0,0,1-3.2-3.6A27.389,27.389,0,0,1,8.7,43a25.507,25.507,0,0,1-1.9-7.1c-.1-.3,0-.7-.1-1v-.7h0V31.8a16.461,16.461,0,0,1,.2-2.1,15.525,15.525,0,0,1,.4-2.1,23,23,0,0,1,1.4-4.2,32.329,32.329,0,0,1,2.2-4.1c.9-1.3,1.9-2.6,2.9-3.8,1.1-1.2,2.3-2.3,3.5-3.4a45.462,45.462,0,0,1,8.3-5.4,45.7,45.7,0,0,1,9.2-3.2A47.143,47.143,0,0,1,40,2.6c1.5-.1,3-.2,4.5-.2A45.8,45.8,0,0,1,68,8.9a1.156,1.156,0,0,0,1.6-.4,1.251,1.251,0,0,0-.3-1.7" transform="translate(0)" fill="#00adee"/><path d="M121,20.8h-.7L120,42.9h0L98.8,23.2l-.3-.3a7.144,7.144,0,0,0-5.1-2.4h-.1a7.088,7.088,0,0,0-7.1,6.9L86,44.7a7.088,7.088,0,0,0,6.9,7.1h.7l.3-22.6,22.9,21.3a5.479,5.479,0,0,0,3.7,1.6h.1a7.088,7.088,0,0,0,7.1-6.9l.2-17.3a7.019,7.019,0,0,0-6.9-7.1" transform="translate(0)" fill="#231f20"/><path d="M253.9,22.5l-12.5-.2-14.8-.2h-.3a7.088,7.088,0,0,0-7.1,6.9v.7l33.8.4v4l-27.1-.3a7.088,7.088,0,0,0-7.1,6.9l-.1,5.5a7.088,7.088,0,0,0,6.9,7.1l27.8.3a7.088,7.088,0,0,0,7.1-6.9l.2-17.3a6.7,6.7,0,0,0-6.8-6.9m-1,23.5-26.3-.3v-4l26.3.3Z" transform="translate(0)" fill="#231f20"/><path d="M74.8,20.2h-.7l-.4,31.3,7.7.1.3-24.3a7.086,7.086,0,0,0-6.9-7.1" transform="translate(0)" fill="#231f20"/><path d="M213.4,22a7.014,7.014,0,0,0-6,3.3l-11,19.6L185.9,25a6.935,6.935,0,0,0-5.9-3.4l-4.7-.1,15.2,28.7.1.2a6.987,6.987,0,0,0,5.7,3.6h0a6.836,6.836,0,0,0,5.8-3.4l.1-.1,16-28.4Z" transform="translate(0)" fill="#231f20"/></svg>