<?xml version="1.0" encoding="utf-8"?>
<!-- Generator: Adobe Illustrator 16.0.0, SVG Export Plug-In . SVG Version: 6.00 Build 0)  -->
<!DOCTYPE svg PUBLIC "-//W3C//DTD SVG 1.1//EN" "http://www.w3.org/Graphics/SVG/1.1/DTD/svg11.dtd">
<svg version="1.1" id="Calque_1" xmlns="http://www.w3.org/2000/svg" xmlns:xlink="http://www.w3.org/1999/xlink" x="0px" y="0px"
	 width="175.271px" height="34.618px" viewBox="0 0 175.271 34.618" enable-background="new 0 0 175.271 34.618"
	 xml:space="preserve">
<g>
	<polygon fill="#FFFFFF" points="18.034,3.189 13.624,3.189 13.624,0.248 25.635,0.248 25.635,3.189 21.224,3.189 21.224,14.745 
		18.034,14.745 	"/>
	<polygon fill="#FFFFFF" points="28.082,0.248 39.016,0.248 39.016,3.085 31.25,3.085 31.25,6.027 38.084,6.027 38.084,8.863 
		31.25,8.863 31.25,11.907 39.12,11.907 39.12,14.745 28.082,14.745 	"/>
	<path fill="#FFFFFF" d="M40.696,7.538V7.496C40.696,3.375,43.804,0,48.257,0c2.732,0,4.369,0.911,5.715,2.237l-2.029,2.34
		c-1.119-1.017-2.258-1.639-3.707-1.639c-2.444,0-4.204,2.031-4.204,4.517v0.041c0,2.485,1.719,4.556,4.204,4.556
		c1.656,0,2.672-0.663,3.81-1.699l2.03,2.053c-1.491,1.595-3.147,2.588-5.943,2.588C43.865,14.993,40.696,11.7,40.696,7.538"/>
	<polygon fill="#FFFFFF" points="56.005,0.248 59.194,0.248 59.194,5.984 65.075,5.984 65.075,0.248 68.265,0.248 68.265,14.745 
		65.075,14.745 65.075,8.926 59.194,8.926 59.194,14.745 56.005,14.745 	"/>
	<polygon fill="#FFFFFF" points="71.747,0.248 74.688,0.248 81.48,9.174 81.48,0.248 84.629,0.248 84.629,14.745 81.915,14.745 
		74.895,5.528 74.895,14.745 71.747,14.745 	"/>
	<path fill="#FFFFFF" d="M98.921,7.538V7.496c0-2.485-1.821-4.558-4.39-4.558s-4.349,2.031-4.349,4.517v0.041
		c0,2.485,1.821,4.556,4.39,4.556C97.142,12.052,98.921,10.021,98.921,7.538 M86.848,7.538V7.496C86.848,3.375,90.099,0,94.572,0
		c4.475,0,7.684,3.334,7.684,7.455v0.041c0,4.121-3.252,7.497-7.725,7.497S86.848,11.659,86.848,7.538"/>
	<path fill="#FFFFFF" d="M13.707,27.411V27.37c0-4.1,3.064-7.496,7.331-7.496c2.63,0,4.204,0.932,5.653,2.299l-1.118,1.2
		c-1.222-1.159-2.589-1.988-4.556-1.988c-3.21,0-5.613,2.609-5.613,5.944v0.041c0,3.357,2.423,5.985,5.613,5.985
		c1.988,0,3.293-0.767,4.68-2.091l1.076,1.056c-1.511,1.533-3.168,2.548-5.798,2.548C16.792,34.868,13.707,31.575,13.707,27.411"/>
	<path fill="#FFFFFF" d="M41.046,27.411V27.37c0-3.292-2.401-5.985-5.716-5.985c-3.313,0-5.674,2.651-5.674,5.944v0.041
		c0,3.294,2.403,5.985,5.716,5.985C38.686,33.355,41.046,30.704,41.046,27.411 M27.958,27.411V27.37
		c0-3.997,3.002-7.496,7.414-7.496c4.411,0,7.373,3.459,7.373,7.455c0.021,0.021,0.021,0.021,0,0.041
		c0,3.998-3.004,7.498-7.415,7.498S27.958,31.409,27.958,27.411"/>
	<polygon fill="#FFFFFF" points="46.206,20.122 47.863,20.122 53.145,28.033 58.425,20.122 60.082,20.122 60.082,34.618 
		58.446,34.618 58.446,22.877 53.165,30.644 53.082,30.644 47.801,22.897 47.801,34.618 46.206,34.618 	"/>
	<path fill="#FFFFFF" d="M70.025,28.014c2.403,0,3.976-1.285,3.976-3.19v-0.042c0-2.07-1.552-3.146-3.894-3.146h-3.665v6.379H70.025
		z M64.807,20.122h5.427c3.271,0,5.425,1.74,5.425,4.598v0.041c0,3.128-2.608,4.743-5.694,4.743h-3.521v5.114h-1.636V20.122z"/>
	<polygon fill="#FFFFFF" points="79.264,20.122 89.743,20.122 89.743,21.613 80.899,21.613 80.899,26.563 88.811,26.563 
		88.811,28.055 80.899,28.055 80.899,33.128 89.846,33.128 89.846,34.618 79.264,34.618 	"/>
	<polygon fill="#FFFFFF" points="96.354,21.635 91.486,21.635 91.486,20.122 102.876,20.122 102.876,21.635 98.009,21.635 
		98.009,34.618 96.354,34.618 	"/>
	<polygon fill="#FFFFFF" points="105.944,20.122 116.423,20.122 116.423,21.613 107.581,21.613 107.581,26.563 115.491,26.563 
		115.491,28.055 107.581,28.055 107.581,33.128 116.526,33.128 116.526,34.618 105.944,34.618 	"/>
	<polygon fill="#FFFFFF" points="119.821,20.122 121.354,20.122 130.487,31.739 130.487,20.122 132.082,20.122 132.082,34.618 
		130.776,34.618 121.417,22.731 121.417,34.618 119.821,34.618 	"/>
	<path fill="#FFFFFF" d="M135.544,27.411V27.37c0-4.1,3.064-7.496,7.331-7.496c2.63,0,4.204,0.932,5.653,2.299l-1.118,1.2
		c-1.223-1.159-2.588-1.988-4.557-1.988c-3.21,0-5.611,2.609-5.611,5.944v0.041c0,3.357,2.422,5.985,5.611,5.985
		c1.988,0,3.293-0.767,4.681-2.091l1.077,1.056c-1.512,1.533-3.169,2.548-5.799,2.548C138.629,34.868,135.544,31.575,135.544,27.411
		"/>
	<polygon fill="#FFFFFF" points="151.473,20.122 161.951,20.122 161.951,21.613 153.109,21.613 153.109,26.563 161.02,26.563 
		161.02,28.055 153.109,28.055 153.109,33.128 162.055,33.128 162.055,34.618 151.473,34.618 	"/>
	<path fill="#FFFFFF" d="M164.398,32.506l1.014-1.2c1.511,1.367,2.961,2.049,4.97,2.049c1.947,0,3.232-1.034,3.232-2.463v-0.041
		c0-1.348-0.727-2.113-3.771-2.755c-3.334-0.726-4.866-1.802-4.866-4.185V23.87c0-2.278,2.009-3.954,4.763-3.954
		c2.112,0,3.624,0.6,5.095,1.779l-0.953,1.264c-1.346-1.098-2.691-1.574-4.183-1.574c-1.884,0-3.086,1.036-3.086,2.342v0.04
		c0,1.367,0.746,2.133,3.935,2.817c3.231,0.702,4.723,1.884,4.723,4.1v0.043c0,2.484-2.072,4.099-4.951,4.099
		C168.022,34.825,166.137,34.06,164.398,32.506"/>
	<rect y="0.466" fill="#F05A2A" width="4.436" height="33.925"/>
	<rect x="79.264" y="17.89" fill="#FFFFFF" width="10.479" height="0.87"/>
</g>
</svg>
