<?xml version="1.0" encoding="utf-8"?>
<!-- Generator: Adobe Illustrator 16.0.0, SVG Export Plug-In . SVG Version: 6.00 Build 0)  -->
<!DOCTYPE svg PUBLIC "-//W3C//DTD SVG 1.1//EN" "http://www.w3.org/Graphics/SVG/1.1/DTD/svg11.dtd">
<svg version="1.1" id="Calque_1" xmlns="http://www.w3.org/2000/svg" xmlns:xlink="http://www.w3.org/1999/xlink" x="0px" y="0px"
	 width="175.271px" height="84.246px" viewBox="0 0 175.271 84.246" enable-background="new 0 0 175.271 84.246"
	 xml:space="preserve">
<g>
	<polygon fill="#FFFFFF" points="18.034,52.61 13.624,52.61 13.624,49.668 25.635,49.668 25.635,52.61 21.224,52.61 21.224,64.166 
		18.034,64.166 	"/>
	<polygon fill="#FFFFFF" points="28.082,49.668 39.016,49.668 39.016,52.505 31.25,52.505 31.25,55.448 38.084,55.448 
		38.084,58.284 31.25,58.284 31.25,61.328 39.12,61.328 39.12,64.166 28.082,64.166 	"/>
	<path fill="#FFFFFF" d="M40.696,56.958v-0.042c0-4.121,3.107-7.496,7.561-7.496c2.732,0,4.369,0.911,5.715,2.237l-2.029,2.34
		c-1.119-1.017-2.258-1.639-3.707-1.639c-2.444,0-4.204,2.031-4.204,4.517v0.041c0,2.485,1.719,4.556,4.204,4.556
		c1.656,0,2.672-0.663,3.81-1.699l2.03,2.053c-1.491,1.595-3.147,2.588-5.943,2.588C43.865,64.414,40.696,61.121,40.696,56.958"/>
	<polygon fill="#FFFFFF" points="56.005,49.668 59.194,49.668 59.194,55.405 65.075,55.405 65.075,49.668 68.265,49.668 
		68.265,64.166 65.075,64.166 65.075,58.346 59.194,58.346 59.194,64.166 56.005,64.166 	"/>
	<polygon fill="#FFFFFF" points="71.747,49.668 74.688,49.668 81.48,58.594 81.48,49.668 84.629,49.668 84.629,64.166 
		81.915,64.166 74.895,54.949 74.895,64.166 71.747,64.166 	"/>
	<path fill="#FFFFFF" d="M98.921,56.958v-0.042c0-2.485-1.821-4.558-4.39-4.558s-4.349,2.031-4.349,4.517v0.041
		c0,2.485,1.821,4.556,4.39,4.556C97.142,61.472,98.921,59.442,98.921,56.958 M86.848,56.958v-0.042
		c0-4.121,3.251-7.496,7.725-7.496c4.475,0,7.684,3.334,7.684,7.455v0.041c0,4.121-3.252,7.497-7.725,7.497
		S86.848,61.08,86.848,56.958"/>
	<path fill="#FFFFFF" d="M13.707,76.832v-0.041c0-4.1,3.064-7.496,7.331-7.496c2.63,0,4.204,0.932,5.653,2.299l-1.118,1.2
		c-1.222-1.159-2.589-1.988-4.556-1.988c-3.21,0-5.613,2.609-5.613,5.944v0.041c0,3.357,2.423,5.985,5.613,5.985
		c1.988,0,3.293-0.767,4.68-2.091l1.076,1.056c-1.511,1.533-3.168,2.548-5.798,2.548C16.792,84.289,13.707,80.996,13.707,76.832"/>
	<path fill="#FFFFFF" d="M41.046,76.832v-0.041c0-3.292-2.401-5.985-5.716-5.985c-3.313,0-5.674,2.651-5.674,5.944v0.041
		c0,3.294,2.403,5.985,5.716,5.985C38.686,82.776,41.046,80.125,41.046,76.832 M27.958,76.832v-0.041
		c0-3.997,3.002-7.496,7.414-7.496c4.411,0,7.373,3.459,7.373,7.455c0.021,0.021,0.021,0.021,0,0.041
		c0,3.998-3.004,7.498-7.415,7.498S27.958,80.83,27.958,76.832"/>
	<polygon fill="#FFFFFF" points="46.206,69.542 47.863,69.542 53.145,77.454 58.425,69.542 60.082,69.542 60.082,84.039 
		58.446,84.039 58.446,72.297 53.165,80.064 53.082,80.064 47.801,72.318 47.801,84.039 46.206,84.039 	"/>
	<path fill="#FFFFFF" d="M70.025,77.434c2.403,0,3.976-1.285,3.976-3.19v-0.042c0-2.07-1.552-3.146-3.894-3.146h-3.665v6.379H70.025
		z M64.807,69.542h5.427c3.271,0,5.425,1.74,5.425,4.598v0.041c0,3.128-2.608,4.743-5.694,4.743h-3.521v5.114h-1.636V69.542z"/>
	<polygon fill="#FFFFFF" points="79.264,69.542 89.743,69.542 89.743,71.034 80.899,71.034 80.899,75.983 88.811,75.983 
		88.811,77.475 80.899,77.475 80.899,82.548 89.846,82.548 89.846,84.039 79.264,84.039 	"/>
	<polygon fill="#FFFFFF" points="96.354,71.055 91.486,71.055 91.486,69.542 102.876,69.542 102.876,71.055 98.009,71.055 
		98.009,84.039 96.354,84.039 	"/>
	<polygon fill="#FFFFFF" points="105.944,69.542 116.423,69.542 116.423,71.034 107.581,71.034 107.581,75.983 115.491,75.983 
		115.491,77.475 107.581,77.475 107.581,82.548 116.526,82.548 116.526,84.039 105.944,84.039 	"/>
	<polygon fill="#FFFFFF" points="119.821,69.542 121.354,69.542 130.487,81.16 130.487,69.542 132.082,69.542 132.082,84.039 
		130.776,84.039 121.417,72.152 121.417,84.039 119.821,84.039 	"/>
	<path fill="#FFFFFF" d="M135.544,76.832v-0.041c0-4.1,3.064-7.496,7.331-7.496c2.63,0,4.204,0.932,5.653,2.299l-1.118,1.2
		c-1.223-1.159-2.588-1.988-4.557-1.988c-3.21,0-5.611,2.609-5.611,5.944v0.041c0,3.357,2.422,5.985,5.611,5.985
		c1.988,0,3.293-0.767,4.681-2.091l1.077,1.056c-1.512,1.533-3.169,2.548-5.799,2.548C138.629,84.289,135.544,80.996,135.544,76.832
		"/>
	<polygon fill="#FFFFFF" points="151.473,69.542 161.951,69.542 161.951,71.034 153.109,71.034 153.109,75.983 161.02,75.983 
		161.02,77.475 153.109,77.475 153.109,82.548 162.055,82.548 162.055,84.039 151.473,84.039 	"/>
	<path fill="#FFFFFF" d="M164.398,81.926l1.014-1.2c1.511,1.367,2.961,2.049,4.97,2.049c1.947,0,3.232-1.034,3.232-2.463v-0.041
		c0-1.348-0.727-2.113-3.771-2.755c-3.334-0.726-4.866-1.802-4.866-4.185v-0.041c0-2.278,2.009-3.954,4.763-3.954
		c2.112,0,3.624,0.6,5.095,1.779l-0.953,1.264c-1.346-1.098-2.691-1.574-4.183-1.574c-1.884,0-3.086,1.036-3.086,2.342v0.04
		c0,1.367,0.746,2.133,3.935,2.817c3.231,0.702,4.723,1.884,4.723,4.1v0.043c0,2.484-2.072,4.099-4.951,4.099
		C168.022,84.246,166.137,83.48,164.398,81.926"/>
	<rect y="49.886" fill="#F05A2A" width="4.436" height="33.925"/>
	<path fill="#FFFFFF" d="M109.755,11.857c0.93,2.526-0.364,5.327-2.891,6.257c-2.525,0.93-5.326-0.363-6.257-2.889
		c-0.93-2.526,0.365-5.327,2.891-6.257S108.824,9.332,109.755,11.857"/>
	<path fill="#FFFFFF" d="M159.399,25.508c1.068,2.9-0.418,6.116-3.317,7.184c-2.9,1.068-6.116-0.418-7.184-3.319
		c-1.068-2.898,0.418-6.114,3.317-7.183C155.115,21.124,158.332,22.608,159.399,25.508"/>
	<path fill="#FFFFFF" d="M124.052,12.118c0.723,1.965-0.283,4.143-2.247,4.866c-1.965,0.724-4.145-0.282-4.867-2.248
		c-0.723-1.965,0.283-4.143,2.248-4.865C121.149,9.146,123.328,10.153,124.052,12.118"/>
	<path fill="#FFFFFF" d="M163.308,11.57c0.585,1.589-0.229,3.354-1.819,3.938c-1.591,0.587-3.354-0.228-3.938-1.818
		c-0.586-1.591,0.228-3.353,1.818-3.938C160.959,9.164,162.723,9.979,163.308,11.57"/>
	<path fill="#FFFFFF" d="M114.66,30.149c1.258,3.414-0.492,7.201-3.906,8.458c-3.415,1.258-7.201-0.492-8.458-3.906
		s0.492-7.2,3.907-8.458C109.616,24.987,113.404,26.735,114.66,30.149"/>
	<path fill="#FFFFFF" d="M131.62,43.044c1.652,4.489-0.647,9.469-5.138,11.122c-4.489,1.654-9.471-0.646-11.122-5.137
		c-1.653-4.489,0.646-9.47,5.138-11.123C124.988,36.254,129.968,38.553,131.62,43.044"/>
	<path fill="#FFFFFF" d="M165.055,44.006c2.479,6.735-0.972,14.206-7.706,16.685c-6.735,2.479-14.205-0.972-16.684-7.705
		c-2.479-6.737,0.971-14.206,7.705-16.686S162.575,37.271,165.055,44.006"/>
	<path fill="#FFFFFF" d="M160.84,13.04l-0.437-0.821l-25.189,13.349l7.905-16.702l-0.841-0.397l-8.229,17.386l-13.287-12.649
		l-0.641,0.675l12.492,11.889C105.563,13.135,105.14,12.71,105.01,12.71v0.556l-0.114,0.358c0.777,0.249,18.516,8.825,27.32,12.979
		l-23.84,5.368l0.205,0.907l24.731-5.57l-9.879,18.709l0.052,0.028l-0.221,0.397l0.77,0.429l10.209-19.335h0.112l18.15,21.261
		l0.707-0.604l-17.64-20.659l18.573-0.032l0.02-0.931l-18.935,0.038L160.84,13.04z"/>
	<path fill="#F05A2A" d="M150.35,5.673c1.652,4.489-0.647,9.471-5.138,11.122c-4.491,1.654-9.471-0.646-11.124-5.138
		c-1.651-4.489,0.648-9.468,5.138-11.122C143.716-1.118,148.696,1.184,150.35,5.673"/>
	<rect x="79.264" y="67.31" fill="#FFFFFF" width="10.479" height="0.87"/>
</g>
</svg>
