<svg width="156" height="30" viewBox="0 0 156 30" xmlns="http://www.w3.org/2000/svg"><title>Group 2</title><g fill="#FFF" fill-rule="evenodd"><path d="M10.142 0h9.015v9.015h-9.015zM0 10.142h9.015v9.015H0zm10.142 0h9.015v9.015h-9.015zm10.143 0H29.3v9.015h-9.015z"/><path d="M21.412 21.412v6.761h6.761v-6.761h-6.761zm-1.127-1.127H29.3V29.3h-9.015v-9.015z" fill-rule="nonzero"/><path d="M10.142 20.285h9.015V29.3h-9.015z"/><path d="M1.127 21.412v6.761h6.761v-6.761H1.127zM0 20.285h9.015V29.3H0v-9.015z" fill-rule="nonzero"/><path d="M44.91 27.102V8.825h4.288v14.43h6.834v3.847H44.909zm16.562-16.96a2.344 2.344 0 0 1-.686 1.652 2.29 2.29 0 0 1-.748.49c-.291.12-.595.18-.91.18-.666 0-1.223-.227-1.672-.683a2.254 2.254 0 0 1-.673-1.64c0-.31.058-.606.175-.89.116-.284.282-.53.498-.736.217-.206.466-.374.749-.503.282-.13.59-.194.922-.194.316 0 .62.06.91.18.292.121.54.285.749.491.208.207.374.452.498.736.125.284.188.59.188.917zm-4.39 16.96V14.246h4.09v12.856h-4.09zm13.87-9.061a4.553 4.553 0 0 0-1.173-.826 3.145 3.145 0 0 0-1.421-.336c-.383 0-.736.078-1.06.233-.324.155-.486.421-.486.8 0 .361.178.62.536.774.357.155.935.327 1.733.517.466.103.935.25 1.41.439.473.189.901.438 1.283.748.383.31.69.689.923 1.136.233.447.35.981.35 1.6 0 .81-.159 1.494-.475 2.053a3.967 3.967 0 0 1-1.234 1.355 5.23 5.23 0 0 1-1.708.749 7.934 7.934 0 0 1-1.896.232 9.076 9.076 0 0 1-2.98-.503c-.972-.336-1.783-.83-2.431-1.485l2.294-2.504a4.6 4.6 0 0 0 1.347 1.033 3.638 3.638 0 0 0 1.696.413c.332 0 .66-.082.985-.245.324-.164.486-.452.486-.865 0-.396-.2-.688-.599-.878-.399-.19-1.022-.387-1.87-.594a9.424 9.424 0 0 1-1.297-.413 4.086 4.086 0 0 1-1.16-.697 3.45 3.45 0 0 1-.835-1.084c-.216-.43-.324-.946-.324-1.549 0-.774.158-1.432.474-1.975a4.097 4.097 0 0 1 1.222-1.33 5.342 5.342 0 0 1 1.658-.76 6.926 6.926 0 0 1 1.808-.246c.931 0 1.842.15 2.731.452.89.301 1.642.753 2.257 1.355l-2.245 2.401zm8.902-.62v4.905c0 .603.113 1.054.337 1.356.225.3.628.451 1.21.451.2 0 .411-.017.636-.051.224-.035.411-.086.56-.155l.05 3.098a6.54 6.54 0 0 1-1.072.27 7.34 7.34 0 0 1-1.297.117c-.83 0-1.53-.108-2.094-.323-.566-.215-1.019-.525-1.36-.93a3.688 3.688 0 0 1-.735-1.445 7.242 7.242 0 0 1-.225-1.871V17.42H73.87v-3.175h1.97v-3.382h4.015v3.382h2.918v3.175h-2.918zm12.124.284a3.089 3.089 0 0 0-.536-.103 5.21 5.21 0 0 0-.512-.026c-.548 0-1.01.104-1.384.31a2.84 2.84 0 0 0-.897.749 2.871 2.871 0 0 0-.487.955c-.1.344-.15.645-.15.903v6.61h-4.09V14.245h3.941v1.859h.05a4.133 4.133 0 0 1 1.347-1.6c.581-.414 1.255-.62 2.02-.62.166 0 .328.008.486.026.158.017.287.043.386.077l-.174 3.717zm9.23 9.397v-1.781h-.05a3.711 3.711 0 0 1-1.434 1.497c-.324.19-.681.344-1.072.465-.39.12-.802.18-1.234.18-.832 0-1.534-.154-2.108-.464a4.118 4.118 0 0 1-1.396-1.2 4.808 4.808 0 0 1-.773-1.679 7.857 7.857 0 0 1-.237-1.923v-7.95h4.115v6.97c0 .36.025.705.075 1.032.05.327.145.62.286.878.142.258.329.46.561.606.233.147.54.22.923.22.715 0 1.26-.276 1.634-.826.374-.551.56-1.197.56-1.937v-6.944h4.09v12.856h-3.94zm13.748 0V20.08c0-.361-.029-.705-.087-1.032a2.914 2.914 0 0 0-.287-.865 1.516 1.516 0 0 0-.561-.594c-.241-.146-.545-.22-.91-.22a2.01 2.01 0 0 0-.96.22 1.963 1.963 0 0 0-.686.607 2.81 2.81 0 0 0-.412.89 3.96 3.96 0 0 0-.137 1.046v6.97h-4.115V14.246h3.966v1.781h.05c.149-.275.344-.546.585-.813.242-.267.524-.495.848-.684.325-.19.678-.344 1.06-.465.383-.12.79-.18 1.222-.18.831 0 1.538.155 2.12.464.582.31 1.052.71 1.409 1.2a4.8 4.8 0 0 1 .773 1.692 7.91 7.91 0 0 1 .237 1.91v7.951h-4.115zm13.823 0V20.08c0-.361-.03-.705-.088-1.032a2.914 2.914 0 0 0-.286-.865 1.516 1.516 0 0 0-.561-.594c-.241-.146-.545-.22-.91-.22a2.01 2.01 0 0 0-.96.22 1.963 1.963 0 0 0-.687.607c-.182.258-.32.555-.411.89a3.96 3.96 0 0 0-.137 1.046v6.97h-4.115V14.246h3.965v1.781h.05c.15-.275.345-.546.586-.813.241-.267.524-.495.848-.684.324-.19.677-.344 1.06-.465.382-.12.79-.18 1.222-.18.831 0 1.538.155 2.12.464.581.31 1.051.71 1.409 1.2a4.8 4.8 0 0 1 .773 1.692 7.91 7.91 0 0 1 .237 1.91v7.951h-4.115zm14.221-7.9c0-.67-.203-1.247-.61-1.729-.408-.482-1.019-.723-1.834-.723a3.01 3.01 0 0 0-1.097.194 2.813 2.813 0 0 0-.873.53c-.25.223-.449.485-.598.786-.15.302-.233.616-.25.943H143zm3.766 1.627v.516a4.6 4.6 0 0 1-.025.49h-9.003a2.3 2.3 0 0 0 .312.982c.175.292.4.546.673.761a3.225 3.225 0 0 0 1.983.684c.648 0 1.197-.124 1.646-.374a3.29 3.29 0 0 0 1.097-.968l2.843 1.859a5.81 5.81 0 0 1-2.307 2.026c-.956.474-2.065.71-3.329.71a7.7 7.7 0 0 1-2.643-.452 6.373 6.373 0 0 1-2.182-1.316 6.096 6.096 0 0 1-1.472-2.13c-.357-.843-.536-1.807-.536-2.891 0-1.05.175-2 .524-2.853a6.463 6.463 0 0 1 1.421-2.168 6.311 6.311 0 0 1 2.12-1.381 7.03 7.03 0 0 1 2.643-.49c.915 0 1.754.158 2.52.477a5.478 5.478 0 0 1 1.97 1.38c.548.603.976 1.335 1.284 2.195.307.86.461 1.842.461 2.943zm9.06-3.124a3.089 3.089 0 0 0-.537-.103 5.21 5.21 0 0 0-.511-.026c-.549 0-1.01.104-1.384.31a2.84 2.84 0 0 0-.898.749 2.871 2.871 0 0 0-.486.955c-.1.344-.15.645-.15.903v6.61h-4.09V14.245h3.94v1.859h.05a4.133 4.133 0 0 1 1.347-1.6c.582-.414 1.255-.62 2.02-.62.166 0 .329.008.486.026.158.017.287.043.387.077l-.175 3.717z"/></g></svg>