<svg xmlns="http://www.w3.org/2000/svg" viewBox="0 0 526.38 139.79"><defs><style>.cls-1{fill:#fff;}</style></defs><title>logo-lyrebird-horizontal</title><g id="Layer_2" data-name="Layer 2"><g id="Layer_1-2" data-name="Layer 1"><path class="cls-1" d="M69.85,0A69.88,69.88,0,0,0,0,68.14a22.56,22.56,0,0,1,8.54-2.21c5.37-.3,8.47,3.91,10.73,7a14,14,0,0,0,2.19,2.56c.4-.15,2.63-1.55,4.21-13.94,2.07-16.33,3.82-24,8.28-23.85,2.26.11,3.21,2.71,4.28,7.79.69,3.29,1.41,7.86,2.15,13.56,1.24,9.66,2.11,19.43,2.12,19.53.42,9.42,1.71,20.26,3.28,24.71,1.69-5.34,3.61-20.4,4.63-33.6,2.12-25,5.92-24.86,7.54-24.79s5.23.23,8,27.36C66.78,81.85,68.58,91,70,93.6c1.39-2.39,3.15-10.27,4.08-18.56,2.35-18.41,6-18.24,7.39-18.17,3.13.14,5.84,5.28,8.06,15.25,1,4.47,2.93,9,4.06,9.76,1-.71,2.82-4.67,3.8-8.47C99.81,64,103.5,63,105,63c1.11,0,4.94.63,7.59,8.59,1,1.86,2.81,3.87,3.81,3.87s3.43-2.73,5.09-5.53c1.06-2.14,3.78-6.93,7.06-6.93,3,0,6.69,2.2,11.19,5.65A69.88,69.88,0,0,0,69.85,0Z"/><path class="cls-1" d="M125.12,71.82,125,72c-1.05,1.78-4.8,7.61-8.67,7.61-4,0-7-5.16-7.52-6.2l-.13-.32c-1-3.2-2.94-5.94-3.75-5.94-.91.25-2.69,3.87-3.56,7.31C98.66,85.11,95,86.27,93.14,86c-4.09-.56-6.5-8.37-7.58-13-1.11-5-2.86-10-4.06-11.62-1.09,2-2.53,8.08-3.3,14.11-.49,4.4-2.4,19.07-6.14,21.94a3.26,3.26,0,0,1-2.51.69c-2.34-.36-4.29-2.84-6.18-13.76-1-5.87-1.53-11.55-1.56-11.79-.88-8.75-2.56-18.79-4-22.53-1.29,3.45-2.67,12.24-3.31,19.9,0,.07-.7,9-1.84,18-2.26,17.89-4.09,20-5.91,20.65a2.76,2.76,0,0,1-.93.16,2.84,2.84,0,0,1-2-.89c-4-4-5.14-23.32-5.4-29.14-1.29-14.54-3.38-30.6-5-35.9C32.25,45.56,31,52,29.74,62c-1.56,12.3-4,17.55-8.34,17.55-2.28,0-3.81-2.06-5.42-4.24C14.07,72.78,11.9,69.89,8.75,70A18.76,18.76,0,0,0,0,72.81a69.89,69.89,0,0,0,139.6,1c-2.32-1.87-8.32-6.7-11.11-6.7C127.9,67.33,126.19,69.62,125.12,71.82Z"/><polygon class="cls-1" points="182.58 31.09 177.39 31.09 177.39 98.72 217.03 98.72 217.03 93.81 182.58 93.81 182.58 31.09"/><path class="cls-1" d="M325.92,44.56c-15.17,0-27.13,11.72-27.13,27.6s12,27.58,27.31,27.58c12.86,0,23.57-8.3,26.11-20.9h-5.27c-2.19,9.69-10.5,16.37-20.9,16.37C313.7,95.13,304.11,85.8,304,72.82h49a22.49,22.49,0,0,0-.07-3.63A26.76,26.76,0,0,0,325.92,44.56ZM304.28,68.91a21.76,21.76,0,0,1,43.37,0Z"/><path class="cls-1" d="M390.53,44.55a24.25,24.25,0,0,0-22.41,14.2V24.33h-5.19V98.72h5.19v-13A24.09,24.09,0,0,0,390.5,99.75c14.78,0,26.06-11.64,26.06-27.6S405.08,44.56,390.53,44.55Zm-.82,50.3c-12.27,0-21.64-9.49-21.65-22.67s9.45-22.73,21.66-22.73h0c12.16,0,21.68,9.44,21.66,22.71S402,94.86,389.71,94.85Z"/><path class="cls-1" d="M521.19,24.33V58.75a24.26,24.26,0,0,0-22.41-14.2c-14.56,0-26,11.54-26,27.6S484,99.74,498.81,99.75a24.09,24.09,0,0,0,22.38-14.06v13h5.19V24.33ZM499.6,94.85c-12.3,0-21.69-9.57-21.68-22.69s9.51-22.72,21.67-22.71h0c12.2,0,21.65,9.51,21.65,22.73S511.87,94.86,499.6,94.85Z"/><path class="cls-1" d="M429.48,27.77a3.72,3.72,0,1,0,3.87,3.72A3.71,3.71,0,0,0,429.48,27.77Z"/><rect class="cls-1" x="426.88" y="45.58" width="5.19" height="53.13"/><path class="cls-1" d="M269.42,73.82V98.67h5V73.81c0-3.51,0-12.82,5.84-18.7,3.61-3.62,9-5.46,16-5.46v-5c-8.38,0-14.95,2.33-19.53,6.93C269.38,58.93,269.41,69.75,269.42,73.82Z"/><path class="cls-1" d="M443.25,73.82V98.67h5V73.81c0-3.51,0-12.82,5.84-18.7,3.61-3.62,9-5.46,16-5.46v-5c-8.37,0-14.94,2.33-19.53,6.93C443.22,58.93,443.24,69.75,443.25,73.82Z"/><path class="cls-1" d="M239.86,91.8,223.17,45.67l-5.59,0,19.65,53.07,0,.1c-1.5,3.17-5.49,11.58-13.32,14.37a16.45,16.45,0,0,1-5.37.91v5a21.56,21.56,0,0,0,7-1.22c9.79-3.48,14.38-12.56,16.17-16.94L263,45.58l-5.59,0Z"/></g></g></svg>