<?xml version="1.0" encoding="utf-8"?>
<!-- Generator: Adobe Illustrator 21.1.0, SVG Export Plug-In . SVG Version: 6.00 Build 0)  -->
<svg version="1.1" id="Layer_1" xmlns="http://www.w3.org/2000/svg" xmlns:xlink="http://www.w3.org/1999/xlink" x="0px" y="0px"
	 viewBox="0 0 300 150" style="enable-background:new 0 0 300 150;" xml:space="preserve">
<style type="text/css">
	.st0{fill:none;stroke:#16617E;stroke-width:4;stroke-miterlimit:10;}
	.st1{clip-path:url(#SVGID_2_);}
	.st2{clip-path:url(#SVGID_4_);enable-background:new    ;}
	.st3{clip-path:url(#SVGID_6_);}
	.st4{clip-path:url(#SVGID_8_);fill:#16617E;}
	.st5{opacity:0.5;clip-path:url(#SVGID_10_);enable-background:new    ;}
	.st6{clip-path:url(#SVGID_12_);}
	.st7{opacity:0.5;clip-path:url(#SVGID_16_);enable-background:new    ;}
	.st8{opacity:0.5;clip-path:url(#SVGID_22_);enable-background:new    ;}
	.st9{clip-path:url(#SVGID_24_);}
	.st10{opacity:0.5;clip-path:url(#SVGID_28_);enable-background:new    ;}
	.st11{opacity:0.5;clip-path:url(#SVGID_34_);enable-background:new    ;}
	.st12{clip-path:url(#SVGID_36_);}
	.st13{fill:#16617E;}
	.st14{opacity:0.75;}
	.st15{fill:#65C0BD;}
	.st16{opacity:0.5;fill:#65C0BD;}
</style>
<path class="st0" d="M267.6,71.5"/>
<path class="st0" d="M41.7,63.9"/>
<g>
	<defs>
		<rect id="SVGID_1_" x="-35" y="-74" width="429" height="281.6"/>
	</defs>
	<clipPath id="SVGID_2_">
		<use xlink:href="#SVGID_1_"  style="overflow:visible;"/>
	</clipPath>
	<g class="st1">
		<defs>
			<rect id="SVGID_3_" x="-35" y="-74" width="429" height="281.6"/>
		</defs>
		<clipPath id="SVGID_4_">
			<use xlink:href="#SVGID_3_"  style="overflow:visible;"/>
		</clipPath>
		<g class="st2">
			<g>
				<defs>
					<rect id="SVGID_5_" x="-35" y="-74" width="429" height="281.6"/>
				</defs>
				<clipPath id="SVGID_6_">
					<use xlink:href="#SVGID_5_"  style="overflow:visible;"/>
				</clipPath>
				<g class="st3">
					<defs>
						<rect id="SVGID_7_" x="74.2" y="36.5" width="210.5" height="60.6"/>
					</defs>
					<clipPath id="SVGID_8_">
						<use xlink:href="#SVGID_7_"  style="overflow:visible;"/>
					</clipPath>
					<path class="st4" d="M141.6,55v25.5c0,1.1-0.8,1.8-1.9,1.8c-1,0-1.9-0.8-1.9-1.8V55c0-5.8-4.7-10.6-10.7-10.6
						c-5.9,0-10.7,4.7-10.7,10.6v25.5c0,1.1-0.8,1.8-1.9,1.8c-1,0-1.9-0.8-1.9-1.8V55c0-5.8-4.8-10.6-10.7-10.6
						c-5.9,0-10.7,4.7-10.7,10.6v25.5c0,1.1-0.9,1.8-1.9,1.8c-1.1,0-1.9-0.8-1.9-1.8V55.8c0-6.1-5.1-11.1-11.3-11.1
						c-1.1,0-1.9-0.8-1.9-1.8c0-1.1,0.8-1.8,1.9-1.8c5.4,0,10.3,3,12.9,7.4c2.4-4.6,7.3-7.6,12.8-7.6c5.4,0,10,3,12.5,7.3
						c2.5-4.3,7.2-7.3,12.6-7.3C135.2,40.8,141.6,47.1,141.6,55"/>
					<path class="st4" d="M176.2,53.5v27.8c0,8.5-6.9,15.4-15.6,15.4c-1.1,0-1.9-0.8-1.9-1.8c0-1.1,0.8-1.8,1.9-1.8
						c6.7,0,11.9-5.4,11.9-11.7v-3c-2.6,2.6-6.2,4.3-10.3,4.3c-8,0-14.1-5.9-14.1-13.4V53.5c0-1,0.8-1.8,1.9-1.8
						c1.1,0,1.9,0.8,1.9,1.8v15.6c0,5.4,4.4,9.8,10.4,9.8c5.7,0,10.3-4.4,10.3-9.8V53.5c0-1,0.9-1.8,1.9-1.8
						C175.4,51.7,176.2,52.6,176.2,53.5"/>
					<path class="st4" d="M210.5,68.8h-25.6c0.9,5.6,5.9,9.9,11.8,9.9h3c1.1,0,1.9,0.8,1.9,1.8c0,1.1-0.8,1.8-1.9,1.8h-3
						c-8.7,0-15.7-6.8-15.7-15.4c0-8.6,7.2-15.4,15.7-15.4c8.6,0,15.7,7,15.7,15.4C212.4,68.1,211.5,68.8,210.5,68.8 M184.9,65.5
						h23.7c-0.8-5.9-5.9-10.4-11.9-10.4C190.6,55.1,185.6,59.6,184.9,65.5"/>
					<path class="st4" d="M217.4,67.1V40.6c0-1.1,0.8-1.8,1.9-1.8c1.1,0,1.9,0.8,1.9,1.8v26.5c0,6.3,5.4,11.6,11.8,11.6
						c1.1,0,1.9,0.8,1.9,1.8s-0.8,1.8-1.9,1.8C224.2,82.3,217.4,75.3,217.4,67.1"/>
					<path class="st4" d="M233.3,45c0-1.2,1-2.2,2.2-2.2c1.2,0,2.2,1,2.2,2.2s-1,2.2-2.2,2.2C234.3,47.2,233.3,46.2,233.3,45
						 M233.6,67.1V53.5c0-1,0.8-1.8,1.9-1.8c1,0,1.9,0.8,1.9,1.8v13.5c0,6.3,5.3,11.6,11.8,11.6c1.1,0,1.9,0.8,1.9,1.8
						s-0.8,1.8-1.9,1.8C240.5,82.3,233.6,75.3,233.6,67.1"/>
					<path class="st4" d="M254.2,80.5V65.1c0-7.5,6.1-13.4,14.1-13.4c7.8,0,14,6,14,13.4v15.4c0,1.1-0.8,1.8-1.9,1.8
						c-1,0-1.9-0.8-1.9-1.8V65.1c0-5.3-4.6-9.7-10.3-9.7c-5.9,0-10.4,4.4-10.4,9.7v15.4c0,1.1-0.8,1.8-1.9,1.8
						C255,82.3,254.2,81.6,254.2,80.5"/>
				</g>
				<g class="st3">
					<defs>
						<rect id="SVGID_9_" x="74.2" y="36.5" width="210.5" height="60.6"/>
					</defs>
					<clipPath id="SVGID_10_">
						<use xlink:href="#SVGID_9_"  style="overflow:visible;"/>
					</clipPath>
					<g class="st5">
						<g>
							<defs>
								<rect id="SVGID_11_" x="84.2" y="68.8" width="9.9" height="18.6"/>
							</defs>
							<clipPath id="SVGID_12_">
								<use xlink:href="#SVGID_11_"  style="overflow:visible;"/>
							</clipPath>
							<g class="st6">
								<defs>
									<rect id="SVGID_13_" x="84.9" y="69.5" width="8.4" height="17.7"/>
								</defs>
								<clipPath id="SVGID_14_">
									<use xlink:href="#SVGID_13_"  style="overflow:visible;"/>
								</clipPath>
							</g>
						</g>
					</g>
				</g>
				<g class="st3">
					<defs>
						<rect id="SVGID_15_" x="74.2" y="36.5" width="210.5" height="60.6"/>
					</defs>
					<clipPath id="SVGID_16_">
						<use xlink:href="#SVGID_15_"  style="overflow:visible;"/>
					</clipPath>
					<g class="st7">
						<g>
							<g>
								<defs>
									<rect id="SVGID_17_" x="145.7" y="48.4" width="8.4" height="17.7"/>
								</defs>
								<clipPath id="SVGID_18_">
									<use xlink:href="#SVGID_17_"  style="overflow:visible;"/>
								</clipPath>
							</g>
						</g>
					</g>
				</g>
				<g class="st3">
					<defs>
						<rect id="SVGID_19_" x="74.2" y="36.5" width="210.5" height="60.6"/>
					</defs>
					<clipPath id="SVGID_20_">
						<use xlink:href="#SVGID_19_"  style="overflow:visible;"/>
					</clipPath>
				</g>
				<g class="st3">
					<defs>
						<rect id="SVGID_21_" x="74.2" y="36.5" width="210.5" height="60.6"/>
					</defs>
					<clipPath id="SVGID_22_">
						<use xlink:href="#SVGID_21_"  style="overflow:visible;"/>
					</clipPath>
					<g class="st8">
						<g>
							<defs>
								<rect id="SVGID_23_" x="275.8" y="66.8" width="8.9" height="18.6"/>
							</defs>
							<clipPath id="SVGID_24_">
								<use xlink:href="#SVGID_23_"  style="overflow:visible;"/>
							</clipPath>
							<g class="st9">
								<defs>
									<rect id="SVGID_25_" x="276" y="67" width="8.4" height="17.7"/>
								</defs>
								<clipPath id="SVGID_26_">
									<use xlink:href="#SVGID_25_"  style="overflow:visible;"/>
								</clipPath>
							</g>
						</g>
					</g>
				</g>
				<g class="st3">
					<defs>
						<rect id="SVGID_27_" x="74.2" y="36.5" width="210.5" height="60.6"/>
					</defs>
					<clipPath id="SVGID_28_">
						<use xlink:href="#SVGID_27_"  style="overflow:visible;"/>
					</clipPath>
					<g class="st10">
						<g>
							<defs>
								<rect id="SVGID_29_" x="134.8" y="68.8" width="9.9" height="18.6"/>
							</defs>
							<clipPath id="SVGID_30_">
								<use xlink:href="#SVGID_29_"  style="overflow:visible;"/>
							</clipPath>
						</g>
					</g>
				</g>
				<g class="st3">
					<defs>
						<rect id="SVGID_31_" x="74.2" y="36.5" width="210.5" height="60.6"/>
					</defs>
					<clipPath id="SVGID_32_">
						<use xlink:href="#SVGID_31_"  style="overflow:visible;"/>
					</clipPath>
				</g>
				<g class="st3">
					<defs>
						<rect id="SVGID_33_" x="74.2" y="38.5" width="210.5" height="60.6"/>
					</defs>
					<clipPath id="SVGID_34_">
						<use xlink:href="#SVGID_33_"  style="overflow:visible;"/>
					</clipPath>
					<g class="st11">
						<g>
							<defs>
								<rect id="SVGID_35_" x="187.4" y="62.9" width="18.9" height="8.8"/>
							</defs>
							<clipPath id="SVGID_36_">
								<use xlink:href="#SVGID_35_"  style="overflow:visible;"/>
							</clipPath>
							<g class="st12">
								<defs>
									<rect id="SVGID_37_" x="187.6" y="63.4" width="18" height="8.3"/>
								</defs>
								<clipPath id="SVGID_38_">
									<use xlink:href="#SVGID_37_"  style="overflow:visible;"/>
								</clipPath>
							</g>
						</g>
					</g>
				</g>
			</g>
		</g>
	</g>
</g>
<path class="st0" d="M61.6,65.1"/>
<g>
	<g>
		<path class="st13" d="M26.1,42.6c7.1,8.3,7.1,20.1-0.8,27.8c-1.4,1.4,0.7,3.5,2.1,2.1c9.1-9,9-22.5,0.8-32.1
			C27,39.1,24.8,41.2,26.1,42.6L26.1,42.6z"/>
	</g>
</g>
<g>
	<g>
		<path class="st13" d="M69.3,45.9c-10.9,2.8-21.5-3.1-25-13.9c-0.6-1.8-3.5-1-2.9,0.8c4,12.3,16.1,19.1,28.6,15.9
			C71.9,48.3,71.1,45.4,69.3,45.9L69.3,45.9z"/>
	</g>
</g>
<g>
	<g>
		<path class="st13" d="M48.9,32.1c-3.5,10.7-14.2,16.4-25.1,13.6c-1.9-0.5-2.7,2.4-0.8,2.9c12.5,3.2,24.7-3.4,28.8-15.7
			C52.4,31.1,49.5,30.3,48.9,32.1L48.9,32.1z"/>
	</g>
</g>
<g>
	<g>
		<path class="st13" d="M45,81.2c3.7-10.7,14.6-16.1,25.4-13.1c1.9,0.5,2.7-2.4,0.8-2.9c-12.5-3.5-24.8,3-29.1,15.2
			C41.5,82.2,44.4,83,45,81.2L45,81.2z"/>
	</g>
</g>
<g class="st14">
	<g>
		<path class="st15" d="M45.7,58.6c-0.3,4-7.3,4-7.3,0S45.4,54.6,45.7,58.6c0.1,1.9,3.1,1.9,3,0c-0.5-7.8-13.3-7.9-13.3,0
			c0,7.9,12.8,7.8,13.3,0C48.8,56.6,45.8,56.6,45.7,58.6z"/>
	</g>
</g>
<g>
	<g>
		<path class="st13" d="M67.7,70.5c-7.4-8-8-19.8-0.4-27.8c1.3-1.4-0.8-3.5-2.1-2.1c-8.8,9.3-8.2,22.9,0.4,32.1
			C66.9,74,69,71.9,67.7,70.5L67.7,70.5z"/>
	</g>
</g>
<g>
	<g>
		<path class="st13" d="M24.5,67.2c11-2.6,21.4,3.6,24.7,14.3c0.6,1.8,3.5,1.1,2.9-0.8c-3.8-12.4-15.8-19.4-28.4-16.4
			C21.8,64.7,22.6,67.6,24.5,67.2L24.5,67.2z"/>
	</g>
</g>
<path class="st0" d="M79.8,123.4"/>
<path class="st0" d="M99.7,124.6"/>
<g class="st14">
	<g>
		<path class="st15" d="M69.2,97.1c7.1,8.3,7.1,20.1-0.8,27.8c-1.4,1.4,0.7,3.5,2.1,2.1c9.1-9,9-22.5,0.8-32.1
			C70.1,93.5,68,95.7,69.2,97.1L69.2,97.1z"/>
	</g>
</g>
<g class="st14">
	<g>
		<path class="st15" d="M112.4,100.3c-10.9,2.8-21.5-3.1-25-13.9c-0.6-1.8-3.5-1-2.9,0.8c4,12.3,16.1,19.1,28.6,15.9
			C115,102.8,114.3,99.9,112.4,100.3L112.4,100.3z"/>
	</g>
</g>
<g class="st14">
	<g>
		<path class="st15" d="M92,86.6c-3.5,10.7-14.2,16.4-25.1,13.6c-1.9-0.5-2.7,2.4-0.8,2.9c12.5,3.2,24.7-3.4,28.8-15.7
			C95.5,85.6,92.6,84.8,92,86.6L92,86.6z"/>
	</g>
</g>
<g class="st14">
	<g>
		<path class="st15" d="M88.2,135.7c3.7-10.7,14.6-16.1,25.4-13.1c1.9,0.5,2.7-2.4,0.8-2.9c-12.5-3.5-24.8,3-29.1,15.2
			C84.6,136.7,87.5,137.5,88.2,135.7L88.2,135.7z"/>
	</g>
</g>
<g>
	<g>
		<path class="st13" d="M88.8,113c-0.3,4-7.3,4-7.3,0S88.5,109.1,88.8,113c0.1,1.9,3.1,1.9,3,0c-0.5-7.8-13.3-7.9-13.3,0
			c0,7.9,12.8,7.8,13.3,0C91.9,111.1,88.9,111.1,88.8,113z"/>
	</g>
</g>
<g class="st14">
	<g>
		<path class="st15" d="M110.8,124.9c-7.4-8-8-19.8-0.4-27.8c1.3-1.4-0.8-3.5-2.1-2.1c-8.8,9.3-8.2,22.9,0.4,32.1
			C110,128.5,112.1,126.4,110.8,124.9L110.8,124.9z"/>
	</g>
</g>
<g class="st14">
	<g>
		<path class="st15" d="M67.6,121.7c11-2.6,21.4,3.6,24.7,14.3c0.6,1.8,3.5,1.1,2.9-0.8c-3.8-12.4-15.8-19.4-28.4-16.4
			C65,119.2,65.8,122.1,67.6,121.7L67.6,121.7z"/>
	</g>
</g>
<g class="st14">
	<g>
		<path class="st15" d="M63.4,109.8c-15.8-2.3-28.7-15-27-31.7c0.2-1.9-2.8-1.9-3,0c-1.8,17.9,12.2,32.1,29.2,34.6
			C64.5,113,65.3,110.1,63.4,109.8L63.4,109.8z"/>
	</g>
</g>
<circle class="st16" cx="235.5" cy="45.1" r="4.1"/>
<path class="st0" d="M184.7,151.9"/>
<path class="st0" d="M204.6,153.1"/>
</svg>
