<svg width="85px" height="37px" viewBox="0 0 85 37" version="1.1" xmlns="http://www.w3.org/2000/svg" xmlns:xlink="http://www.w3.org/1999/xlink">
					<g stroke="none" stroke-width="1" fill="none" fill-rule="evenodd">
							<g transform="translate(-384.000000, -29.000000)" fill="#E26931">
									<path d="M385.289632,38.5192258 C386.149336,38.8323323 387.131275,38.0006232 387.610577,37.3978772 C391.06652,33.0484231 396.866528,31.1936736 402.225338,32.8712568 C406.798297,34.3029635 408.820615,39.2249312 407.808707,43.6069433 C406.679489,48.496353 401.768085,50.9491974 397.165155,51.7935914 C396.583956,51.9001449 395.840705,51.9825971 395.024457,52.0149437 C395.268497,50.515161 395.437398,49.0022707 395.542292,47.4874776 C395.826791,43.3868596 395.7326,38.9281037 394.606593,34.9372105 C394.1609,33.358147 391.010648,35.725368 391.413527,37.1522122 C392.439564,40.7879271 392.466751,44.756833 392.29207,48.4971987 C392.239195,49.6248897 392.141579,50.7534265 391.999008,51.8766778 C389.38543,51.5050091 387.030876,50.3864089 387.318586,47.7716202 C387.42241,46.8297635 386.288482,46.88748 385.719912,47.155555 C384.871554,47.5557648 384.140291,48.3815543 384.036895,49.3225654 C383.573006,53.541576 387.564552,54.8859681 391.447351,55.1073203 C390.747128,58.3445167 389.600356,61.4766395 387.869816,64.3320193 C387.508038,64.9294799 387.529873,65.9277846 388.437101,65.93159 C389.412617,65.9345499 390.226938,65.1062233 390.688259,64.3455499 C392.437852,61.458035 393.630649,58.3235865 394.410933,55.0804705 C395.083112,55.0324792 395.707554,54.9610207 396.251505,54.8773001 C402.703356,53.8817438 408.794713,49.5447632 410.824095,43.3063103 C412.671731,37.6262061 409.893747,31.460903 404.05799,29.6340604 C397.084879,27.4518281 389.598215,31.1807772 385.319816,36.5657452 C384.945194,37.0369907 384.429071,38.2067534 385.289632,38.5192258 Z M456.215674,38.0567078 C456.221668,38.0282177 456.221668,38.0273736 456.213533,38.0662045 C456.214389,38.06325 456.214818,38.0600844 456.215674,38.0567078 Z M424.323123,41.4731972 C424.434654,41.7317184 424.514716,41.9976259 424.578509,42.1917806 C425.066374,43.6821288 425.03512,45.3712746 424.94992,46.9515249 C423.787307,45.7089349 424.002875,42.9209158 424.323123,41.4731972 Z M412.226894,49.9106956 C414.227591,48.306598 417.279156,49.767823 416.641228,52.3998853 C415.999447,55.0469311 412.112153,56.658204 409.269948,56.0903015 C409.401172,53.7239358 410.473876,51.3159956 412.226894,49.9106956 Z M467.384124,55.6207427 C467.977954,52.7345911 469.695008,46.9333756 465.286026,45.9087876 C463.280834,45.4430274 461.274786,46.1305883 459.713147,47.3389901 C459.167055,47.7612765 458.666987,48.2274589 458.200957,48.7244526 C458.328757,47.8716493 458.461266,47.0032291 458.602766,46.090069 C459.464826,40.5330242 460.242113,37.49788 460.614166,35.9423211 C460.941907,34.5701539 456.801155,35.6103588 456.503384,36.9318769 C456.503384,36.9318769 456.291883,37.6757847 456.215674,38.0567078 C456.206897,38.1020809 456.183991,38.2170965 456.155092,38.3671443 C456.077385,38.7776126 456.009096,39.1901913 455.94145,39.6023479 C455.742794,40.8101167 455.583097,41.7101925 455.433463,42.9245035 C455.018595,46.2966749 454.941744,47.3860515 454.687215,49.5538308 C454.667093,49.7237161 454.647398,49.8942346 454.627704,50.0645421 C454.606083,50.1911647 454.586388,50.3114562 454.572902,50.416975 C454.406142,51.7338503 454.345132,52.1654224 454.05785,53.4592945 C453.744666,54.8705037 452.894381,56.4969712 452.222415,57.7855674 C450.981024,60.1645955 448.914394,62.1403304 446.1606,62.5813992 C443.63372,62.9857475 441.389198,61.7845209 440.408758,59.4401031 C439.115562,56.3486117 440.219949,52.0100987 442.838879,49.9106956 C444.014978,48.9677791 445.895582,49.0055549 446.851403,50.2466676 C447.257494,50.7738398 447.047491,51.4687869 447.294528,52.0525172 C447.653309,52.8992004 448.598641,52.6328709 449.291799,52.3365739 C450.827536,51.6794026 450.699309,49.7467193 450.151504,48.4644542 C449.487673,46.9099505 447.989185,45.9385439 446.281978,45.9227161 C442.441565,45.8866286 438.787821,50.2198658 437.604229,53.445155 C437.313094,54.2395009 437.081899,55.0783758 436.928625,55.9316012 C436.602383,57.4903257 436.405867,59.0712091 435.647845,60.5290575 C435.313468,61.1725115 434.477526,62.3268878 433.60198,61.9415329 C432.64466,61.5198796 433.039404,59.7433642 433.144299,58.9692779 C433.446993,56.7377652 436.181735,47.3366687 432.012512,47.1357608 C430.532861,47.0646411 429.275629,47.6947997 427.985216,47.8638409 C428.361979,45.3782389 428.366902,42.8025237 427.841789,40.3768563 C427.374475,38.2179406 425.528123,36.5859861 423.386568,38.069159 C421.280121,39.5278516 420.897578,42.8409325 420.880453,45.1735323 C420.86033,48.010301 421.943523,50.2050932 424.462483,50.9243097 C423.83483,53.9102821 422.610779,56.8895013 420.890514,59.2649417 C418.214641,62.9595788 411.912854,64.4995209 409.796773,59.4401031 C413.897495,58.8593272 418.295345,55.364754 419.554076,52.1991884 C420.698493,49.3229556 419.042021,45.9537386 415.669993,45.9227161 C411.82958,45.8866286 408.175837,50.2198658 406.992245,53.445155 C406.843252,53.8511916 406.710529,54.2696793 406.595145,54.6949203 C405.362531,54.5288336 403.341926,56.6719215 404.254078,57.665909 C404.814941,58.2772853 405.450514,58.7210976 406.135965,59.0211932 C406.32028,61.5241003 407.389772,63.8387619 409.840658,65.1896142 C413.692844,67.3122314 418.544095,64.7057047 421.369174,62.110152 C424.520282,59.2145037 426.228987,54.9819315 427.322456,50.9449913 C428.361551,50.6172498 429.423551,50.0719284 430.353899,50.3226411 C431.627828,50.6651554 430.704117,55.6315056 430.577601,56.5193412 C430.322858,58.298389 429.718753,60.0390281 429.750436,61.8520529 C429.777194,63.3698361 430.354755,65.1752636 431.952144,65.7024358 C432.563527,65.9039768 433.611185,65.8980677 434.256391,65.7402115 C435.016553,65.5538653 435.818887,65.0098101 436.397518,64.4872807 C436.825657,64.1006596 437.114652,63.6488279 437.466154,63.2090253 C437.595453,63.0477926 437.730959,62.8899364 437.867107,62.7333464 C438.460509,63.7102399 439.30373,64.5565011 440.452642,65.1896142 C443.310046,66.7641665 446.642685,65.8366558 449.227579,64.1789547 C450.961758,63.0667859 452.173822,61.6931415 453.154689,60.162274 C453.245027,60.0213008 453.330869,59.8773731 453.417353,59.7338675 C453.149766,61.5536456 452.847927,63.3656153 452.483795,65.1577475 C452.202721,66.5415217 455.777045,65.6190759 455.969922,64.276243 C456.701612,59.1794714 457.183698,55.722885 457.630247,52.6180983 C457.680768,52.5446571 457.730004,52.4729043 457.777313,52.404106 C458.978031,50.65186 461.332799,48.379195 463.816009,49.2389626 C464.896847,49.6131324 464.667364,51.1802984 464.645529,52.0611698 C464.570605,55.0914601 463.500256,57.9822546 463.244442,60.9895419 C463.139976,62.2194696 463.033797,63.7845252 463.805948,64.8462559 C464.752564,66.1492027 466.589711,66.3279516 467.68896,65.1191276 C468.113246,64.6529453 468.427715,64.1987922 468.347439,63.5726433 C468.271444,62.983215 467.818472,62.9954552 467.42544,62.6917719 C466.87314,62.2639985 466.693749,61.6937746 466.67748,61.0133891 C466.637877,59.3506231 467.051246,57.2389798 467.384124,55.6207427 Z" id="Logo"></path>
							</g>
					</g>
			</svg>