    <svg class="rbtq-top-bar__more-logo rbtq-top-bar__more-logo--" xmlns="http://www.w3.org/2000/svg" viewBox="0 0 22 22"><path d="M2.475 2.24c-.047 0-.087.035-.087.077v6.385c0 .033.027.063.062.073l6.254-.822c.047 0 .087-.035.087-.077v-5.56c0-.041-.04-.077-.087-.077H2.475zm.052 7.778h-.052C1.662 10.018 1 9.428 1 8.702V2.317C1 1.59 1.662 1 2.475 1h6.23c.813 0 1.475.59 1.475 1.317v5.559c0 .707-.63 1.287-1.417 1.315l-6.236.827zM13.475 2.24c-.047 0-.087.035-.087.077v5.559c0 .042.04.077.087.077l.102.007 6.152.815c.035-.01.062-.04.062-.073V2.317c0-.042-.04-.078-.087-.078h-6.229zm6.23 7.778l-.103-.007-6.186-.82C12.63 9.163 12 8.583 12 7.876v-5.56C12 1.592 12.662 1 13.475 1h6.23c.813 0 1.475.59 1.475 1.317v6.385c0 .726-.662 1.316-1.476 1.316zm-17.23 4.047c-.047 0-.087.036-.087.078v5.559c0 .042.04.077.087.077h6.23c.046 0 .086-.035.086-.077v-6.385c0-.035-.027-.065-.062-.075l-6.254.823zm6.23 6.953h-6.23c-.813 0-1.475-.59-1.475-1.316v-5.56c0-.708.63-1.287 1.416-1.315L8.704 12c.814 0 1.476.59 1.476 1.317v6.385c0 .726-.662 1.316-1.476 1.316zm4.745-7.776c-.036.01-.062.04-.062.074v6.385c0 .042.04.077.087.077h6.228c.047 0 .087-.035.087-.077v-5.559c0-.041-.04-.077-.087-.077l-.102-.007-6.151-.816zm6.253 7.776h-6.228c-.814 0-1.475-.591-1.475-1.317v-6.385c0-.726.66-1.316 1.475-1.316l.102.007 6.185.82c.786.028 1.417.607 1.417 1.315v5.559c0 .726-.662 1.317-1.476 1.317z" fill-rule="evenodd" stroke="#C5C5C5" stroke-width=".2"/></svg>