<?xml version="1.0" encoding="UTF-8"?>
<svg width="371px" height="137px" viewBox="0 0 371 137" version="1.1" xmlns="http://www.w3.org/2000/svg" xmlns:xlink="http://www.w3.org/1999/xlink">
    <!-- Generator: Sketch 48.2 (47327) - http://www.bohemiancoding.com/sketch -->
    <title>roof.ai logo OUTLINES</title>
    <desc>Created with Sketch.</desc>
    <defs>
        <path d="M9.06825479,40.3488352 C8.41706081,42.6503907 7.72952112,44.9516637 7.29557536,46.4737922 C7.00591106,47.5501302 7.29557536,48.6267508 8.12767186,49.3691698 C8.59796333,49.8516857 9.24915731,50 9.86428092,50 C10.2621563,50 10.6600317,49.9259841 10.9857664,49.8143952 C17.9322026,46.584816 21.1881725,45.1002605 21.9841987,44.8406398 L40.1460401,44.8406398 C51.9404986,44.8406398 61.781375,34.9295719 61.9986233,22.8285374 C61.9992592,22.7765094 61.999718,22.7245017 62,22.6725148 L62,22.4238869 C61.9687672,16.6690245 59.7686781,11.185811 55.7031056,6.97839979 C51.4702071,2.52416817 45.5728402,0 39.5672622,0 L22.0926851,0 C16.1595232,0 10.3345724,2.44986977 6.21016028,6.79279503 C2.41448291,10.6527756 0.209430726,15.7283332 2.54682044e-12,21.0988959 L2.5484903e-12,22.9176918 C0.239526272,29.8979431 3.57387268,36.3017566 9.06825479,40.3488352 Z" id="path-1"></path>
    </defs>
    <g id="Logo" stroke="none" stroke-width="1" fill="none" fill-rule="evenodd">
        <g id="roof.ai-logo-OUTLINES">
            <g id="Logo" transform="translate(16.000000, 15.000000)">
                <g id="logo-text-colored" transform="translate(80.000000, 0.000000)" fill="#3780EA">
                    <path d="M27.888,38.976 C29.3440073,38.976 30.6039947,39.3539962 31.668,40.11 C32.7320053,40.8660038 33.264,41.8039944 33.264,42.924 C33.264,44.2680067 32.9140035,45.2899965 32.214,45.99 C31.5139965,46.6900035 30.660005,47.04 29.652,47.04 C29.1479975,47.04 28.392005,46.8720017 27.384,46.536 C26.2079941,46.143998 25.2840034,45.948 24.612,45.948 C22.8759913,45.948 21.1820083,46.549994 19.53,47.754 C17.8779917,48.958006 16.5340052,50.6099895 15.498,52.71 C14.4619948,54.8100105 13.944,57.1479871 13.944,59.724 L13.944,79.968 C13.944,81.0880056 13.5660038,82.0399961 12.81,82.824 C12.0539962,83.6080039 11.0880059,84 9.912,84 C8.73599412,84 7.78400364,83.6220038 7.056,82.866 C6.32799636,82.1099962 5.964,81.1440059 5.964,79.968 L5.964,44.016 C5.964,42.8959944 6.34199622,41.9440039 7.098,41.16 C7.85400378,40.3759961 8.7919944,39.984 9.912,39.984 C11.0880059,39.984 12.0539962,40.3759961 12.81,41.16 C13.5660038,41.9440039 13.944,42.8959944 13.944,44.016 L13.944,48.3 C15.1760062,45.5559863 17.0239877,43.3300085 19.488,41.622 C21.9520123,39.9139915 24.7519843,39.0320003 27.888,38.976 Z M80.472,61.992 C80.472,66.3600218 79.4920098,70.2799826 77.532,73.752 C75.5719902,77.2240174 72.8980169,79.9399902 69.51,81.9 C66.1219831,83.8600098 62.3840204,84.84 58.296,84.84 C54.2079796,84.84 50.4700169,83.8600098 47.082,81.9 C43.6939831,79.9399902 41.0200098,77.2240174 39.06,73.752 C37.0999902,70.2799826 36.12,66.3600218 36.12,61.992 C36.12,57.6239782 37.0999902,53.6760176 39.06,50.148 C41.0200098,46.6199824 43.6939831,43.8760098 47.082,41.916 C50.4700169,39.9559902 54.2079796,38.976 58.296,38.976 C62.3840204,38.976 66.1219831,39.9559902 69.51,41.916 C72.8980169,43.8760098 75.5719902,46.6199824 77.532,50.148 C79.4920098,53.6760176 80.472,57.6239782 80.472,61.992 Z M72.492,61.992 C72.492,58.9679849 71.8620063,56.2660119 70.602,53.886 C69.3419937,51.5059881 67.6340108,49.6580066 65.478,48.342 C63.3219892,47.0259934 60.9280132,46.368 58.296,46.368 C55.6639868,46.368 53.2700108,47.0259934 51.114,48.342 C48.9579892,49.6580066 47.2500063,51.5059881 45.99,53.886 C44.7299937,56.2660119 44.1,58.9679849 44.1,61.992 C44.1,64.9600148 44.7299937,67.6199882 45.99,69.972 C47.2500063,72.3240118 48.9579892,74.1579934 51.114,75.474 C53.2700108,76.7900066 55.6639868,77.448 58.296,77.448 C60.9280132,77.448 63.3219892,76.7900066 65.478,75.474 C67.6340108,74.1579934 69.3419937,72.3240118 70.602,69.972 C71.8620063,67.6199882 72.492,64.9600148 72.492,61.992 Z M131.376,61.992 C131.376,66.3600218 130.39601,70.2799826 128.436,73.752 C126.47599,77.2240174 123.802017,79.9399902 120.414,81.9 C117.025983,83.8600098 113.28802,84.84 109.2,84.84 C105.11198,84.84 101.374017,83.8600098 97.986,81.9 C94.5979831,79.9399902 91.9240098,77.2240174 89.964,73.752 C88.0039902,70.2799826 87.024,66.3600218 87.024,61.992 C87.024,57.6239782 88.0039902,53.6760176 89.964,50.148 C91.9240098,46.6199824 94.5979831,43.8760098 97.986,41.916 C101.374017,39.9559902 105.11198,38.976 109.2,38.976 C113.28802,38.976 117.025983,39.9559902 120.414,41.916 C123.802017,43.8760098 126.47599,46.6199824 128.436,50.148 C130.39601,53.6760176 131.376,57.6239782 131.376,61.992 Z M123.396,61.992 C123.396,58.9679849 122.766006,56.2660119 121.506,53.886 C120.245994,51.5059881 118.538011,49.6580066 116.382,48.342 C114.225989,47.0259934 111.832013,46.368 109.2,46.368 C106.567987,46.368 104.174011,47.0259934 102.018,48.342 C99.8619892,49.6580066 98.1540063,51.5059881 96.894,53.886 C95.6339937,56.2660119 95.004,58.9679849 95.004,61.992 C95.004,64.9600148 95.6339937,67.6199882 96.894,69.972 C98.1540063,72.3240118 99.8619892,74.1579934 102.018,75.474 C104.174011,76.7900066 106.567987,77.448 109.2,77.448 C111.832013,77.448 114.225989,76.7900066 116.382,75.474 C118.538011,74.1579934 120.245994,72.3240118 121.506,69.972 C122.766006,67.6199882 123.396,64.9600148 123.396,61.992 Z M159.432,29.064 C157.583991,29.064 156.226004,29.6239944 155.358,30.744 C154.489996,31.8640056 154.056,33.2359919 154.056,34.86 L154.056,40.74 L162.372,40.74 C163.492006,40.74 164.401996,41.0899965 165.102,41.79 C165.802003,42.4900035 166.152,43.3719947 166.152,44.436 C166.152,45.5000053 165.802003,46.3679966 165.102,47.04 C164.401996,47.7120034 163.492006,48.048 162.372,48.048 L154.056,48.048 L154.056,79.968 C154.056,81.0880056 153.678004,82.0399961 152.922,82.824 C152.165996,83.6080039 151.200006,84 150.024,84 C148.903994,84 147.966004,83.6080039 147.21,82.824 C146.453996,82.0399961 146.076,81.0880056 146.076,79.968 L146.076,48.048 L140.868,48.048 C139.803995,48.048 138.908004,47.7120034 138.18,47.04 C137.451996,46.3679966 137.088,45.5000053 137.088,44.436 C137.088,43.3719947 137.451996,42.4900035 138.18,41.79 C138.908004,41.0899965 139.803995,40.74 140.868,40.74 L146.076,40.74 L146.076,34.86 C146.076,30.9399804 147.335987,27.8180116 149.856,25.494 C152.376013,23.1699884 155.931977,22.008 160.524,22.008 C162.42801,22.008 164.107993,22.3579965 165.564,23.058 C167.020007,23.7580035 167.748,24.807993 167.748,26.208 C167.748,27.2720053 167.426003,28.1539965 166.782,28.854 C166.137997,29.5540035 165.368004,29.904 164.472,29.904 C164.247999,29.904 163.632005,29.7920011 162.624,29.568 C161.391994,29.2319983 160.328004,29.064 159.432,29.064 Z M176.232,83.916 C174.887993,83.916 173.866003,83.5520036 173.166,82.824 C172.465996,82.0959964 172.116,81.032007 172.116,79.632 L172.116,78.036 C172.116,76.6919933 172.465996,75.6560036 173.166,74.928 C173.866003,74.1999964 174.887993,73.836 176.232,73.836 L177.072,73.836 C178.472007,73.836 179.521996,74.1999964 180.222,74.928 C180.922003,75.6560036 181.272,76.6919933 181.272,78.036 L181.272,79.632 C181.272,82.4880143 179.872014,83.916 177.072,83.916 L176.232,83.916 Z" id="roof."></path>
                </g>
                <g id="logo-text-colored" transform="translate(266.000000, 0.000000)" fill="#00D4D2">
                    <path d="M41.664,39.396 C42.8400059,39.396 43.8059962,39.7739962 44.562,40.53 C45.3180038,41.2860038 45.696,42.2799938 45.696,43.512 L45.696,79.968 C45.696,81.0880056 45.3180038,82.0399961 44.562,82.824 C43.8059962,83.6080039 42.8400059,84 41.664,84 C40.4879941,84 39.5360036,83.6220038 38.808,82.866 C38.0799964,82.1099962 37.716,81.1440059 37.716,79.968 L37.716,77.784 C36.2599927,79.7440098 34.2720126,81.4099931 31.752,82.782 C29.2319874,84.1540069 26.5160146,84.84 23.604,84.84 C19.795981,84.84 16.3380155,83.8600098 13.23,81.9 C10.1219845,79.9399902 7.68600882,77.2100175 5.922,73.71 C4.15799118,70.2099825 3.276,66.2760218 3.276,61.908 C3.276,57.5399782 4.15799118,53.6060175 5.922,50.106 C7.68600882,46.6059825 10.1079846,43.8760098 13.188,41.916 C16.2680154,39.9559902 19.6559815,38.976 23.352,38.976 C26.3200148,38.976 29.0779873,39.5919938 31.626,40.824 C34.1740127,42.0560062 36.2039924,43.6239905 37.716,45.528 L37.716,43.512 C37.716,42.3359941 38.0799964,41.3560039 38.808,40.572 C39.5360036,39.7879961 40.4879941,39.396 41.664,39.396 Z M24.528,77.448 C27.1600132,77.448 29.4979898,76.7760067 31.542,75.432 C33.5860102,74.0879933 35.1819943,72.2400118 36.33,69.888 C37.4780057,67.5359882 38.052,64.8760148 38.052,61.908 C38.052,58.9959854 37.4780057,56.3640118 36.33,54.012 C35.1819943,51.6599882 33.5860102,49.7980069 31.542,48.426 C29.4979898,47.0539931 27.1600132,46.368 24.528,46.368 C21.8959868,46.368 19.5580102,47.0399933 17.514,48.384 C15.4699898,49.7280067 13.8740057,51.5759882 12.726,53.928 C11.5779943,56.2800118 11.004,58.9399852 11.004,61.908 C11.004,64.8760148 11.5779943,67.5359882 12.726,69.888 C13.8740057,72.2400118 15.4699898,74.0879933 17.514,75.432 C19.5580102,76.7760067 21.8959868,77.448 24.528,77.448 Z M65.1,79.968 C65.1,81.0880056 64.7220038,82.0399961 63.966,82.824 C63.2099962,83.6080039 62.2440059,84 61.068,84 C59.9479944,84 59.0100038,83.6080039 58.254,82.824 C57.4979962,82.0399961 57.12,81.0880056 57.12,79.968 L57.12,43.596 C57.12,42.4759944 57.4979962,41.5240039 58.254,40.74 C59.0100038,39.9559961 59.9479944,39.564 61.068,39.564 C62.2440059,39.564 63.2099962,39.9559961 63.966,40.74 C64.7220038,41.5240039 65.1,42.4759944 65.1,43.596 L65.1,79.968 Z M61.068,34.02 C59.4439919,34.02 58.2820035,33.7260029 57.582,33.138 C56.8819965,32.5499971 56.532,31.6120064 56.532,30.324 L56.532,28.98 C56.532,27.6359933 56.9099962,26.6840028 57.666,26.124 C58.4220038,25.5639972 59.5839922,25.284 61.152,25.284 C62.7200078,25.284 63.8539965,25.5779971 64.554,26.166 C65.2540035,26.7540029 65.604,27.6919936 65.604,28.98 L65.604,30.324 C65.604,31.6680067 65.2400036,32.6199972 64.512,33.18 C63.7839964,33.7400028 62.6360078,34.02 61.068,34.02 Z" id="ai"></path>
                </g>
                <g id="Bubble-colored" transform="translate(0.000000, 39.000000)">
                    <g id="Bubble">
                        <mask id="mask-2" fill="white">
                            <use xlink:href="#path-1"></use>
                        </mask>
                        <use id="Clip-2" stroke="#3680EA" stroke-width="6" xlink:href="#path-1"></use>
                        <path d="M20.8668804,29 C19.797859,29 19,28.4707831 19,27.7014732 C19,27.1202939 19.2719849,26.4722296 19.797859,25.7602117 L26.1324758,17.3351098 C27.1976588,15.8460543 28.327822,15 30.1985409,15 L30.7987173,15 C32.6710813,15 33.7993253,15.8460543 34.9294885,17.3351098 L41.2641053,25.7602117 C41.7326761,26.4722296 42,27.1202939 42,27.7014732 C42,28.4707831 41.2013184,29 40.1336679,29 C38.1371011,29 37.0650637,28.4094941 35.259325,26.1513952 L30.4614779,20.1154974 L25.6647276,26.1513952 C23.8688593,28.4094941 22.803128,29 20.8668804,29 Z" id="Fill-4" fill="#00D4D2" mask="url(#mask-2)"></path>
                    </g>
                </g>
            </g>
        </g>
    </g>
</svg>