<svg xmlns="http://www.w3.org/2000/svg" viewBox="0 0 802.31 126.87"><title>SPORTLOGiQ</title><path d="M51.91 37.25a10.67 10.67 0 0 0 11.9-.48L73.9 29.5c-8.82-12-19.76-15.27-31.38-15.27C24.94 14.23 7 24.09 5.4 42.89 3.8 61.14 17 70.87 32.21 73.31 40 74.39 48.47 77.5 47.73 82.9c-1.29 8.44-15.73 9.59-25.59 3.28a10.74 10.74 0 0 0-12.77 1L0 95.34c7.92 11.49 19.58 17.31 31.07 17.31 17.57 0 37.93-10.14 40.36-28.65C74.57 60.46 58 54.51 41.29 51.4c-7.29-1.62-12.06-4.32-11.93-8.92 1.15-9.24 13.29-11.06 22.55-5.23m71.91-21.67H85.56l-8.37 95.71h24.2l1.8-20.6a8.08 8.08 0 0 1 8.06-7.38H118c23.12 0 36.36-16.9 37.85-33.93s-8.67-33.8-32.06-33.8m-4 46.23h-14.07l2.07-23.66h14.06c14.61-.13 12.52 23.8-2.07 23.66m85.83-47.58c-19.87 0-40.61 10.77-42.49 32.85l-2.86 32.71c-1.91 21.91 17 32.86 36.87 32.86s40.57-11 42.49-32.86l2.86-32.71c1.92-21.9-17-32.85-36.87-32.85m12.67 32.85l-2.86 32.71c-.6 6.9-8.62 10.41-16.32 10.41s-15.25-3.38-14.64-10.41l2.86-32.71c.62-7 8.52-10.82 16.09-10.82 7.84 0 15.52 3.38 14.87 10.82m108 0c1.42-22.44-13.06-31.5-32.8-31.5h-38.24l-8.37 95.71h24.47l2.28-26.1a4.72 4.72 0 0 1 4.7-4.31l19.51 30.41H328l-23.24-32.85c12-3.65 20-13.65 21.54-31.36M290 60.06h-14.18l1.91-21.91h14.2c15.28 0 13.36 21.91-1.92 21.91m42.05-21.63h25.42l-6.38 72.86h24.47l5.73-65.48a8.09 8.09 0 0 1 8.06-7.38h18l2-23h-75.29zm105.2 43.1l5.77-66H418.7l-8.38 95.71h63.27l2.1-23.92h-33.08a5.37 5.37 0 0 1-5.35-5.84m90.8-67.3c-19.87 0-40.56 10.81-42.48 32.85l-2.87 32.71c-1.91 21.91 17 32.86 36.88 32.86s40.57-11 42.48-32.86l2.87-32.71c1.91-21.9-17-32.85-36.88-32.85m12.68 32.85l-2.87 32.71c-.6 6.9-8.61 10.41-16.32 10.41s-15.25-3.38-14.64-10.41l2.87-32.71c.61-7 8.51-10.82 16.08-10.82 7.85 0 15.53 3.38 14.88 10.82M607.52 76h11.74a3.23 3.23 0 0 1 3.23 3.22v.29c-1.3 14.88-29.29 15-28 0l2.87-32.85c1.1-12.57 22.72-15.55 26.87-2.7l21.1-9.33c-5.29-15.28-19-20.41-31.47-20.41-18.93 0-38.8 10.81-40.7 32.44l-2.86 32.86c-1.93 22 16 33.13 35 33.13 19.19 0 38.55-11.09 40.48-33.13l2.08-23.79h-38.57zm53.7-76l-11.1 126.87H784a7.89 7.89 0 0 0 7.87-7.21L802.31 0zm28.47 103.91a8.08 8.08 0 0 1-8.06 7.38h-16.79l4.87-55.56h24.19zM698.91 29a16.44 16.44 0 0 1-16.06 14.76A13.31 13.31 0 0 1 669.38 29a16.43 16.43 0 0 1 16.06-14.76A13.31 13.31 0 0 1 698.91 29M784 47.08l-2.86 32.71a33.12 33.12 0 0 1-6.35 16.9l6.78 7.57-14.44 12-4.28-4.87a6.12 6.12 0 0 0-6.62-1.74 53.32 53.32 0 0 1-17.58 3c-19.87 0-38.79-11-36.87-32.86l2.86-32.71c1.93-22 22.62-32.85 42.49-32.85s38.79 11 36.87 32.85m-55.16 0L726 79.79c-.77 8.79 9.76 13.66 17.89 10.28L736.76 82l14.4-11.63 6 6.76 2.62-30c1.29-14.74-29.7-14.33-31 0" fill="#fff"/></svg>