<svg class="stradigi-ai-logo" xmlns="http://www.w3.org/2000/svg" viewBox="0 0 79.6 20"><style>.ai-text{fill:#3aa1e4;}.stradigi-text{fill:#fdfdfd;transition: 0.4s;}.scrolled .stradigi-text{fill:#000;}</style><path class="stradigi-text" d="M2 13.7l1.5-1.9c.4.3 1 .6 1.6.8.6.2 1.2.3 1.8.3 1.4 0 1.5-.5 1.5-.8 0-.5-.4-.8-1.4-.9-.3 0-.5-.1-.6-.1-.7-.1-1.4-.3-1.9-.4-.5-.2-1-.5-1.5-.9-.6-.5-.8-1.1-.8-1.9 0-1.3 1.5-3.2 4.2-3.2.8 0 1.6.1 2.3.3.7.2 1.4.6 2 1.1L9.3 8c-.5-.3-1-.5-1.4-.7-.5-.2-1-.3-1.5-.3-1.2.1-1.4.6-1.4.8 0 .3.2.5.6.6.4.2.9.3 1.3.4.9.1 1.6.3 2.1.4 3 1 2.3 4.4.9 5.2-.7.6-1.8.9-3.1.9-1.9 0-3.5-.5-4.8-1.6zM15 11.4c0 .4.1.8.2 1.1.1.3.5.4 1 .4h.7v2.3c-.4.1-.9.1-1.2.1-.8 0-1.4-.1-1.9-.2s-.9-.4-1.1-.8c-.3-.4-.4-.9-.4-1.6V7.1H11V4.7h1.2V1.9H15v2.7h2.1V7H15v4.4zM22.6 7.5c-.5.1-1 .4-1.5.9-.4.5-.7 1.2-.7 2.1V15h-2.8V4.8h2.8v1.4c.5-.6 1-1 1.7-1.2.7-.2 1.3-.3 1.8-.3v2.7c-.3-.1-.7 0-1.3.1zM32.2 14.1c-.2.3-.6.6-1.2.9-.6.3-1.2.4-1.9.4-1.1 0-2-.2-2.8-.7-.8-.5-1.4-1.1-1.8-1.9-.3-.9-.5-1.8-.5-2.8s.2-1.9.6-2.7c.4-.8 1-1.5 1.8-1.9.8-.5 1.7-.7 2.8-.7.7 0 1.3.1 1.9.4.5.2 1 .6 1.2.9V4.8H35v10.3h-2.8v-1zm-.6-6.2c-.5-.5-1.2-.8-2.1-.8-.9 0-1.6.3-2.1.8-.4.5-.7 1.2-.7 2.1 0 .8.3 1.5.8 2.1.5.5 1.2.8 2 .8.9 0 1.6-.3 2.1-.8s.8-1.2.8-2.1c0-.9-.3-1.6-.8-2.1zM43.9 14.1c-.2.3-.6.6-1.2.9-.6.3-1.2.4-1.9.4-1.1 0-2-.2-2.8-.7-.8-.5-1.4-1.1-1.8-1.9-.4-.8-.6-1.7-.6-2.7s.2-1.9.6-2.7c.4-.8 1-1.5 1.8-1.9.8-.5 1.7-.7 2.8-.7.7 0 1.3.1 1.9.4.5.2 1 .6 1.2.9V1h2.8v14.1h-2.8v-1zm-.7-6.2c-.5-.5-1.2-.8-2.1-.8-.9 0-1.6.3-2.1.8s-.8 1.2-.8 2.1c0 .8.3 1.5.8 2.1s1.2.8 2 .8c.9 0 1.6-.3 2.1-.8s.8-1.2.8-2.1c.1-.9-.2-1.6-.7-2.1zM47.2 4.9H50v10.2h-2.8V4.9zM47.2 1H50v2.8h-2.8V1zM62.3 1h2.8v2.8h-2.8V1zM60.3 17.7c-.9.9-2.2 1.3-3.8 1.3-1.9 0-3.6-.5-4.9-1.5l1.4-2c.4.3.9.6 1.5.8.6.2 1.2.3 1.8.3 1.8 0 2.6-.8 2.6-2.4V14c-.7.6-1.7.9-2.9.9-1.1 0-2-.2-2.9-.7-.8-.5-1.4-1.1-1.9-1.9-.4-.8-.7-1.6-.7-2.6s.2-1.8.7-2.6c.4-.8 1.1-1.4 1.9-1.9.9-.3 1.8-.5 2.9-.5 1.2 0 2.1.3 2.9.9v-.8h2.8v9.3c0 1.6-.5 2.7-1.4 3.6zm-2.7-5.5c.4-.2.8-.6 1-1 .2-.4.4-.9.4-1.4 0-.5-.1-1-.4-1.4-.2-.4-.6-.8-1-1-.4-.3-.9-.4-1.4-.4-.8 0-1.5.3-2 .8s-.8 1.2-.8 2 .3 1.5.8 2 1.2.8 2.1.8c.4 0 .9-.1 1.3-.4zM62.3 4.9h2.8v10.2h-2.8V4.9z"/><path class="ai-text" d="M71.3 10.2h1.1l-.5-1.3z"/><path class="ai-text" d="M67.9 4.9v10.2h10.2V4.9H67.9zm5 6.8l-.2-.7H71l-.3.7h-1l1.7-3.8h1l1.6 3.8h-1.1zm2.7 0h-1V7.9h1v3.8z"/></svg>